<?xml version="1.0" encoding="UTF-8"?><svg xmlns="http://www.w3.org/2000/svg" viewBox="0 0 205.54 360.76"><defs><style>.d{fill:#5d6b84;}</style></defs><g id="a"/><g id="b"><g id="c"><path class="d" d="M176.77,360.76c-7.72-1.58-13.32-6.35-18.72-11.77C108.39,299.2,58.65,249.49,8.89,199.78c-7.82-7.81-11.1-16.89-7.33-27.51,1.36-3.84,3.88-7.6,6.77-10.5C59.37,110.52,110.53,59.4,161.69,8.28c7.76-7.75,17.05-10.39,27.42-6.52,9.74,3.63,15.27,11.08,16.3,21.47,.83,8.39-2.52,15.3-8.41,21.15-11.16,11.09-22.26,22.24-33.38,33.36-33.21,33.21-66.42,66.41-99.64,99.61-.91,.91-1.95,1.69-4.27,3.68,1.77,.99,3.24,1.44,4.21,2.4,44.29,44.21,88.52,88.47,132.79,132.7,7.58,7.58,10.84,16.36,7.56,26.88-2.58,8.29-8.16,13.79-16.46,16.45-1.33,.43-2.66,.86-3.99,1.28h-7.05Z"/></g></g></svg>