<?xml version="1.0" encoding="UTF-8"?>
<svg version="1.1" xmlns="http://www.w3.org/2000/svg" width="800" height="800">
<path d="M0 0 C6.750847 29.99281794 13.20115157 60.04996767 19.64727175 90.10943866 C20.64829034 94.77718756 21.64996727 99.44479478 22.65209961 104.11230469 C22.86366638 105.09771819 22.86366638 105.09771819 23.07950723 106.10303903 C23.78795122 109.40265507 24.49649097 112.70225054 25.20511818 116.00182724 C26.58866855 122.44474773 27.97048889 128.88803246 29.34872437 135.33209229 C31.59897795 145.84881439 33.85173746 156.36453718 36.16855907 166.86683083 C37.0422531 170.82803914 37.90948257 174.79065029 38.77636909 178.75335312 C39.17311533 180.55676426 39.57341939 182.35939695 39.97755241 184.16116714 C40.52316313 186.59373142 41.05693457 189.0286109 41.58813477 191.46435547 C41.74863626 192.16373608 41.90913776 192.86311668 42.07450294 193.58369064 C42.88246876 197.35148348 43.23783038 200.31236222 42 204 C39.734375 206.32421875 39.734375 206.32421875 36.75 208.6875 C36.21133301 209.11901367 35.67266602 209.55052734 35.11767578 209.99511719 C33.42303468 211.34514368 31.71407796 212.67476836 30 214 C28.99195313 214.78503906 27.98390625 215.57007813 26.9453125 216.37890625 C24.83928353 218.00531793 22.72971652 219.62558178 20.61328125 221.23828125 C16.40878036 224.44446394 12.2352578 227.69016988 8.0625 230.9375 C7.29083496 231.53788086 6.51916992 232.13826172 5.72412109 232.75683594 C0.57764255 236.76411718 -4.55517059 240.78837923 -9.68041992 244.82275391 C-18.20057655 251.52454734 -26.77138127 258.1616048 -35.33203125 264.81152344 C-37.63825848 266.60321006 -39.94419412 268.39527116 -42.25 270.1875 C-43.37656006 271.06281372 -43.37656006 271.06281372 -44.52587891 271.95581055 C-48.50370853 275.04904953 -52.47156691 278.15397757 -56.42211914 281.28198242 C-58.10401152 282.60844694 -59.79563009 283.92168174 -61.48828125 285.234375 C-64.07879928 287.24996229 -66.59629448 289.33730602 -69.10546875 291.453125 C-70.5072948 292.59438619 -71.909629 293.73502354 -73.3125 294.875 C-74.26310303 295.70765381 -74.26310303 295.70765381 -75.23291016 296.55712891 C-77.14874176 298.08292883 -78.71874022 299.10934376 -81 300 C-82.95225525 299.70016479 -82.95225525 299.70016479 -85.03881836 298.91748047 C-86.22703438 298.47681747 -86.22703438 298.47681747 -87.43925476 298.0272522 C-92.07568178 296.16733276 -96.67968848 294.24698071 -101.265625 292.265625 C-102.89620346 291.56617767 -102.89620346 291.56617767 -104.5597229 290.8526001 C-108.1247448 289.32208428 -111.68742047 287.78619137 -115.25 286.25 C-117.11130801 285.44927912 -118.97284704 284.64909714 -120.83440971 283.84896851 C-138.86248253 276.09973055 -156.87227624 268.30791999 -174.875 260.5 C-175.96735962 260.02630981 -177.05971924 259.55261963 -178.18518066 259.0645752 C-179.24974487 258.60272827 -180.31430908 258.14088135 -181.41113281 257.66503906 C-182.96828003 256.99009399 -182.96828003 256.99009399 -184.55688477 256.30151367 C-186.56911069 255.42518808 -188.57880614 254.54302477 -190.58569336 253.65454102 C-195.12097932 251.65007746 -199.64891991 249.72951314 -204.30371094 248.01855469 C-217.40847746 243.06587798 -217.40847746 243.06587798 -220.59375 236.078125 C-221.29864329 233.82263271 -221.93170605 231.5437223 -222.5 229.25 C-223.06521948 227.37401785 -223.63055499 225.49806167 -224.20263672 223.62416077 C-224.7827386 221.69426646 -225.3325842 219.75756762 -225.87890625 217.81787109 C-227.64623763 211.79924562 -229.83466877 205.94691477 -232 200.0625 C-237.13220747 185.75395343 -242.07446346 171.38069844 -247 157 C-247.49281745 155.56167897 -247.98565663 154.12336539 -248.47851562 152.68505859 C-248.73056763 151.94942184 -248.98261963 151.2137851 -249.24230957 150.45585632 C-249.75869205 148.94898336 -250.27521269 147.44215774 -250.79187012 145.93537903 C-252.08075794 142.17591233 -253.36724902 138.41566256 -254.6484375 134.65356445 C-256.9084238 128.02678056 -259.19406937 121.41606086 -261.609375 114.84375 C-261.99593262 113.7801123 -262.38249023 112.71647461 -262.78076172 111.62060547 C-263.48695933 109.68730679 -264.20641337 107.75877495 -264.94189453 105.83642578 C-267.14174578 99.78015984 -267.14174578 99.78015984 -266.50390625 96.26953125 C-264.5616378 93.33847159 -262.39243532 90.68604669 -260.0625 88.0625 C-256.09402269 83.49124919 -252.26474281 78.85185592 -248.5625 74.0625 C-244.29095563 68.55724395 -239.83660162 63.24319303 -235.27636719 57.97558594 C-231.72450814 53.86693644 -228.29119757 49.68225808 -224.921875 45.421875 C-221.33623264 40.90338259 -217.65876306 36.45931292 -214 32 C-212.49971683 30.16689838 -210.99971592 28.33356573 -209.5 26.5 C-208.76007813 25.59636719 -208.02015625 24.69273437 -207.2578125 23.76171875 C-205.72894312 21.89163112 -204.20298432 20.01916084 -202.6796875 18.14453125 C-201.53886719 16.74267578 -201.53886719 16.74267578 -200.375 15.3125 C-199.70210938 14.48363281 -199.02921875 13.65476562 -198.3359375 12.80078125 C-197.56507813 11.87652344 -196.79421875 10.95226562 -196 10 C-195.57994658 9.344907 -195.15989317 8.689814 -194.72711086 8.01486969 C-192.24436105 4.52235222 -190.3274751 2.34707416 -186.09723091 1.24105835 C-182.43308662 0.93371164 -178.83946916 0.87986033 -175.16235352 0.90820312 C-173.75821376 0.89070878 -172.3541138 0.86972917 -170.95007324 0.84555054 C-167.13975503 0.78984817 -163.33073653 0.78302304 -159.52007031 0.78499031 C-155.4879425 0.77868317 -151.45637696 0.72728457 -147.42454529 0.68103027 C-139.74821691 0.59981337 -132.07222609 0.55924828 -124.39553446 0.53308249 C-115.81860457 0.50185288 -107.24229931 0.42480326 -98.66571736 0.3439045 C-65.77865101 0.03687737 -32.88844175 -0.10621364 0 0 Z " fill="#8C00DA" transform="translate(574,307)"/>
<path d="M0 0 C0.93474561 0.23138231 1.86949121 0.46276463 2.83256245 0.70115852 C5.92520493 1.46898265 9.01437637 2.24993748 12.10375977 3.03076172 C14.29334122 3.57653671 16.48314505 4.12142027 18.67315674 4.66546631 C25.71687358 6.41838861 32.75611469 8.18890224 39.79516602 9.96044922 C48.17633371 12.06682163 56.55809857 14.17080851 64.94063759 16.27171707 C67.31362503 16.86659396 69.6864875 17.46196956 72.05922508 18.05784225 C85.55499878 21.4448854 99.05798758 24.75572504 112.64005852 27.77962112 C114.73058938 28.24639431 116.8195834 28.71944611 118.90809631 29.19515991 C119.88913031 29.41844939 119.88913031 29.41844939 120.88998318 29.64624977 C121.52586392 29.79102446 122.16174467 29.93579914 122.81689453 30.08496094 C127.49813832 31.14945563 132.18690036 32.15192732 136.88867188 33.12109375 C150.66911595 36.14159571 150.66911595 36.14159571 154.76733398 40.25268555 C156.427038 43.39899396 157.36765309 46.4194272 158.35766602 49.83544922 C159.23793312 51.98537902 160.18316373 54.09924101 161.13566589 56.21807861 C162.15853248 58.49668463 163.14412619 60.78805292 164.11938477 63.08740234 C164.44600098 63.85705322 164.77261719 64.6267041 165.10913086 65.41967773 C165.60340576 66.58454712 165.60340576 66.58454712 166.10766602 67.77294922 C166.78572479 69.36228132 167.46410834 70.95147491 168.14282227 72.54052734 C169.88936873 76.63542283 171.6328522 80.73134125 173.35766602 84.83544922 C173.89182884 86.01664085 173.89182884 86.01664085 174.43678284 87.22169495 C175.44040101 90.070277 175.60521816 92.23305785 175.60058594 95.24560547 C175.60366257 96.30440918 175.6067392 97.36321289 175.60990906 98.45410156 C175.59913078 100.15880615 175.59913078 100.15880615 175.58813477 101.89794922 C175.58767654 103.0808252 175.58721832 104.26370117 175.58674622 105.48242188 C175.58372641 107.98731488 175.57584825 110.49220604 175.56347656 112.99707031 C175.545366 116.79352637 175.54296608 120.58973596 175.54321289 124.38623047 C175.53829134 126.82763879 175.53246027 129.26904548 175.52563477 131.71044922 C175.52452194 132.8307251 175.52340912 133.95100098 175.52226257 135.10522461 C175.4894863 140.674345 175.29564887 146.18583799 174.84858704 151.73828125 C174.71133445 153.46088669 174.71133445 153.46088669 174.57130909 155.21829224 C174.50080688 156.08195404 174.43030466 156.94561584 174.35766602 157.83544922 C150.8873689 158.16319449 127.41741707 158.4097107 103.94528866 158.56081963 C93.04542767 158.63286319 82.14699239 158.7309927 71.24804688 158.89160156 C61.74301821 159.03160206 52.2390224 159.12157052 42.73299128 159.15268815 C37.70378416 159.17086626 32.6775304 159.21325286 27.64927483 159.31567001 C22.90487805 159.4115122 18.1646169 159.43985834 13.41934395 159.41895676 C11.68869058 159.42277336 9.95788282 159.45015921 8.22807312 159.50432587 C-0.7957353 159.77276502 -7.00709279 159.14628058 -13.95245308 152.99054348 C-16.41134879 150.6005046 -18.74919196 148.12816297 -21.03872478 145.57605958 C-23.46497414 142.94252844 -26.09892204 140.59721905 -28.76733398 138.21044922 C-31.76372277 135.47009365 -34.76001549 132.72971184 -37.74780273 129.97998047 C-38.27341797 129.49682373 -38.7990332 129.01366699 -39.34057617 128.51586914 C-40.42568215 127.51232664 -41.50570434 126.50326176 -42.58081055 125.48901367 C-45.3895286 122.84930038 -48.22566628 120.34807528 -51.27124023 117.98388672 C-63.50537107 108.12540865 -69.36250474 95.12106475 -75.9909668 81.25488281 C-78.16056216 76.76237059 -80.47570198 72.35818858 -82.82983398 67.96044922 C-83.61084324 66.48444782 -84.39078559 65.00788141 -85.16967773 63.53076172 C-85.56268066 62.78600586 -85.95568359 62.04125 -86.3605957 61.27392578 C-89.37961636 55.53031086 -92.36875955 49.77092512 -95.35791016 44.01171875 C-98.32698737 38.30551553 -101.38018432 32.65795927 -104.53198242 27.05029297 C-105.64233398 24.83544922 -105.64233398 24.83544922 -105.64233398 22.83544922 C-94.68435637 19.35013504 -83.68291393 16.07580753 -72.61108398 12.97216797 C-71.84139786 12.75610209 -71.07171173 12.5400362 -70.27870178 12.31742287 C-66.22430441 11.17976128 -62.16903242 10.04528071 -58.11303711 8.91333008 C-53.95059264 7.75089082 -49.7916425 6.57640735 -45.63329315 5.39941692 C-42.40260248 4.48746278 -39.16939163 3.58471128 -35.93544006 2.68439674 C-34.40038313 2.25530127 -32.86628814 1.82274771 -31.33323669 1.38654137 C-29.19343014 0.77855979 -27.05033623 0.18383809 -24.90600586 -0.40795898 C-23.69295776 -0.74817581 -22.47990967 -1.08839264 -21.23010254 -1.43891907 C-13.61675549 -2.97873023 -7.39279393 -1.89312547 0 0 Z " fill="#8B21FF" transform="translate(200.642333984375,642.16455078125)"/>
<path d="M0 0 C0.38220703 0.71430176 0.76441406 1.42860352 1.15820312 2.16455078 C2.61791832 4.89031859 4.07940876 7.61512576 5.54199219 10.33935547 C6.46940971 12.06798231 7.39489429 13.79764576 8.3203125 15.52734375 C8.92617188 16.65527344 9.53203125 17.78320312 10.15625 18.9453125 C10.74241907 20.05133851 11.32858814 21.15736452 11.93251991 22.29690647 C13.22027067 24.66937229 14.55996579 26.82521464 16.083395 29.0702734 C22.67317868 39.07000763 23.20270401 47.61222181 23.19384766 59.37524414 C23.22111878 61.28727331 23.25159602 63.199259 23.28500366 65.1111908 C23.36364031 70.26411801 23.3911428 75.4160388 23.4039197 80.56950688 C23.41409786 83.79636745 23.43515865 87.02297422 23.45991135 90.24975395 C23.5456784 101.52740342 23.58833041 112.80430993 23.59228516 124.08227539 C23.59715889 134.56541961 23.69930245 145.04461474 23.84606898 155.52664477 C23.96800163 164.55651514 24.02011516 173.58508697 24.01895559 182.61577505 C24.01952029 187.99707185 24.04795452 193.37457021 24.14766312 198.75502205 C24.75966981 234.01912465 24.75966981 234.01912465 18.10125732 241.40548706 C14.44830572 244.4474533 10.6453931 246.4177902 6.21012306 248.07855511 C3.93391354 249.02755278 2.22849511 250.15988704 0.27264404 251.65093994 C-2.62248445 253.83286478 -5.087352 254.88910981 -8.67236328 255.66918945 C-9.73681671 255.90906082 -10.80127014 256.14893219 -11.89797974 256.39607239 C-13.02734955 256.63275131 -14.15671936 256.86943024 -15.3203125 257.11328125 C-16.49713593 257.37255905 -17.67395935 257.63183685 -18.88644409 257.89897156 C-21.36419128 258.44172939 -23.84366819 258.97664356 -26.32470703 259.50415039 C-30.12269869 260.3120105 -33.91502078 261.14307528 -37.70703125 261.97851562 C-40.11949679 262.50395986 -42.53224819 263.02809371 -44.9453125 263.55078125 C-46.64543991 263.92098137 -46.64543991 263.92098137 -48.37991333 264.29866028 C-49.43806244 264.52277084 -50.49621155 264.74688141 -51.58642578 264.9777832 C-52.51351349 265.17588089 -53.4406012 265.37397858 -54.39578247 265.57807922 C-57.01583404 266.00256534 -59.35301458 266.21223246 -62 266 C-64.03515625 264.0859375 -64.03515625 264.0859375 -66.0625 261.375 C-66.83722656 260.37210938 -67.61195313 259.36921875 -68.41015625 258.3359375 C-68.82539551 257.79420898 -69.24063477 257.25248047 -69.66845703 256.69433594 C-72.01263117 253.71146675 -74.51366276 250.86440212 -77 248 C-81.32129115 242.98857803 -85.55103027 237.91455404 -89.72265625 232.77734375 C-92.28204163 229.65603499 -94.88598963 226.57554516 -97.5 223.5 C-102.40610367 217.72483957 -107.23270782 211.89067391 -112 206 C-113.11568359 204.88625 -113.11568359 204.88625 -114.25390625 203.75 C-119.65371737 195.24559948 -115.04108997 177.05576902 -114.20556641 167.43188477 C-113.98044347 164.79585603 -113.79193943 162.16451339 -113.61962891 159.52368164 C-112.36661434 140.55304116 -108.37045454 127.16655638 -97.6338501 111.4236145 C-95.52926101 108.30171695 -93.68419722 105.09656483 -91.84375 101.8125 C-91.28357178 100.83909668 -90.72339355 99.86569336 -90.14624023 98.86279297 C-89.60298096 97.91807129 -89.05972168 96.97334961 -88.5 96 C-87.25158568 93.83577388 -86.00288021 91.67171569 -84.75390625 89.5078125 C-82.85786897 86.22253569 -80.96344536 82.93637918 -79.07373047 79.64746094 C-77.19976636 76.387192 -75.31924549 73.13078235 -73.4375 69.875 C-72.87804687 68.89789062 -72.31859375 67.92078125 -71.7421875 66.9140625 C-67.3735456 59.37683936 -63.10232405 52.19101247 -56.0625 46.875 C-51.30628881 43.1347414 -46.88866568 39.16421694 -42.5 35 C-37.46276909 30.23319483 -32.31896314 25.74840838 -26.89453125 21.421875 C-22.53488929 17.77413139 -18.42249497 13.87162566 -14.30078125 9.95898438 C-3.78914655 0 -3.78914655 0 0 0 Z " fill="#8400F0" transform="translate(778,467)"/>
<path d="M0 0 C0.84805139 2.57545679 1.57483641 5.10858863 2.25 7.73046875 C2.46407501 8.53532715 2.67815002 9.34018555 2.89871216 10.16943359 C3.60698052 12.84011939 4.3036095 15.51369453 5 18.1875 C5.49267075 20.05722052 5.98600592 21.92676609 6.47998047 23.79614258 C7.49697983 27.64947862 8.50934106 31.50399285 9.51855469 35.359375 C10.87253609 40.52556481 12.24920619 45.68542949 13.6328125 50.84375 C18.00976246 67.1995875 22.18986634 83.59447329 26.125 100.0625 C26.32353577 100.88640228 26.52207153 101.71030457 26.72662354 102.55917358 C27.28502821 104.88305103 27.8353534 107.20867903 28.3828125 109.53515625 C28.54789307 110.2197995 28.71297363 110.90444275 28.88305664 111.60983276 C30.48679868 118.52232245 30.48679868 118.52232245 30 122 C28.6015625 123.66235352 28.6015625 123.66235352 26.625 125.12890625 C25.89539063 125.68255859 25.16578125 126.23621094 24.4140625 126.80664062 C23.61742187 127.38607422 22.82078125 127.96550781 22 128.5625 C21.18273437 129.17673828 20.36546875 129.79097656 19.5234375 130.42382812 C17.02597245 132.29692691 14.51397946 134.1491529 12 136 C9.97254108 137.51456009 7.94900726 139.03423634 5.92578125 140.55444336 C4.63307477 141.52479263 3.33877935 142.49302842 2.04296875 143.45922852 C-3.02321594 147.24075567 -8.01907917 151.10706187 -13 155 C-18.62266069 159.39450272 -24.27751698 163.73627292 -30 168 C-37.99416495 173.96036994 -45.86102977 180.07791101 -53.71777344 186.21777344 C-57.47396074 189.15103909 -61.23730236 192.0750937 -65 195 C-66.50003506 196.16662158 -68.00003505 197.33328827 -69.5 198.5 C-72.5 200.83333333 -75.5 203.16666667 -78.5 205.5 C-79.24362793 206.07838623 -79.98725586 206.65677246 -80.75341797 207.25268555 C-82.24198963 208.41044553 -83.73059597 209.56816094 -85.21923828 210.72583008 C-89.14438855 213.77838991 -93.06879857 216.83189535 -96.9921875 219.88671875 C-97.80945313 220.52287109 -98.62671875 221.15902344 -99.46875 221.81445312 C-101.03407652 223.03291752 -102.59919206 224.25165303 -104.1640625 225.47070312 C-104.87046875 226.02048828 -105.576875 226.57027344 -106.3046875 227.13671875 C-106.92327637 227.61842529 -107.54186523 228.10013184 -108.17919922 228.59643555 C-108.78006348 229.05961182 -109.38092773 229.52278809 -110 230 C-110.67434082 230.55405518 -111.34868164 231.10811035 -112.04345703 231.67895508 C-114 233 -114 233 -117 233 C-117 164.03 -117 95.06 -117 24 C-101.03481698 20.315727 -85.08017755 16.65907704 -69.0625 13.22265625 C-67.62916321 12.91460965 -67.62916321 12.91460965 -66.16687012 12.60033989 C-61.15290961 11.52287424 -56.13845554 10.44774467 -51.12353516 9.37475586 C-45.95756025 8.26895039 -40.79343035 7.15475148 -35.62962341 6.03887272 C-31.62790762 5.17565798 -27.62492168 4.31845579 -23.62155151 3.46294975 C-21.71360752 3.0541305 -19.80615103 2.64302913 -17.89920044 2.22960091 C-15.26224423 1.65847985 -12.62361387 1.09586304 -9.984375 0.53540039 C-9.20019699 0.36356735 -8.41601898 0.19173431 -7.608078 0.01469421 C-2.22826442 -1.11413221 -2.22826442 -1.11413221 0 0 Z " fill="#8100F2" transform="translate(117,191)"/>
<path d="M0 0 C1.0904811 0.00092179 2.1809622 0.00184359 3.30448818 0.00279331 C4.55115765 0.00141865 5.79782711 0.00004398 7.08227444 -0.00137234 C8.47653127 0.00216727 9.87078785 0.00580209 11.26504421 0.00952244 C12.72330123 0.0098043 14.18155839 0.00964659 15.63981533 0.00907993 C19.61071618 0.00879193 23.58158708 0.01468906 27.55248094 0.02165389 C31.69783233 0.02788702 35.84318434 0.02849119 39.9885397 0.0296793 C47.84377459 0.03279274 55.69899564 0.04100629 63.55422443 0.05102879 C72.49482531 0.06218954 81.43542684 0.06770028 90.37603295 0.07272422 C108.77255694 0.0831889 127.16906802 0.10078858 145.56558132 0.12304783 C143.9876941 6.02460477 142.39355588 11.89620417 140.44351101 17.68798923 C140.05119793 18.85750629 139.65888485 20.02702335 139.25468349 21.23198032 C138.62740604 23.08458218 138.62740604 23.08458218 137.98745632 24.97461033 C137.53880743 26.30580014 137.09032006 27.63704441 136.64198208 28.96833897 C135.45041127 32.50237971 134.25387179 36.03471697 133.05556774 39.56647968 C132.31353594 41.75407786 131.57270918 43.94208119 130.83209133 46.13015842 C109.35861187 109.53698673 109.35861187 109.53698673 104.56558132 119.12304783 C101.83656817 119.50031565 99.191464 119.74360504 96.44668484 119.91333103 C95.58861988 119.97396008 94.73055492 120.03458914 93.846488 120.09705544 C90.96303843 120.29844967 88.07885523 120.48607798 85.19448757 120.67382908 C83.15418289 120.81359268 81.11393613 120.95420419 79.07374477 121.09561253 C73.56838021 121.47478489 68.06228465 121.84214152 62.55596828 122.20719624 C56.85691105 122.58684376 51.15854917 122.97664667 45.46011257 123.36547947 C36.24579899 123.9930118 27.03108054 124.61424474 17.8160696 125.23144627 C6.71801722 125.97521777 -4.37868234 126.73726537 -15.4748106 127.50915813 C-20.58061048 127.86392783 -25.68659735 128.21599191 -30.79259872 128.56784821 C-34.73041632 128.83922474 -38.66817073 129.1114381 -42.60577488 129.38589573 C-46.26160702 129.64043171 -49.91770185 129.8908074 -53.57403469 130.1380434 C-55.49831196 130.26910138 -57.42231416 130.40417956 -59.34629917 130.53946018 C-66.72167792 131.03332417 -74.04298159 131.22605831 -81.43441868 131.12304783 C-78.1598893 124.34493322 -74.58667077 117.91857908 -70.55941868 111.56054783 C-65.61972673 103.6726884 -60.77097961 95.73725471 -55.99691868 87.74804783 C-51.17598712 79.68575385 -46.32846799 71.64117924 -41.43441868 63.62304783 C-36.43853023 55.43697951 -31.48637862 47.22578294 -26.55941868 38.99804783 C-21.57231882 30.67125365 -16.54633503 22.37386018 -11.43441868 14.12304783 C-10.69416508 12.915125 -9.95461491 11.70677088 -9.21566868 10.49804783 C-8.84498264 9.89251072 -8.47429661 9.28697361 -8.09237766 8.66308689 C-7.0612812 6.97821966 -6.03102504 5.29283827 -5.00082493 3.60742283 C-2.81607858 0.14233885 -2.81607858 0.14233885 0 0 Z " fill="#8C00DC" transform="translate(455.4344186782837,-0.1230478286743164)"/>
<path d="M0 0 C1.82193415 0.18496778 3.64426084 0.36610441 5.4669342 0.54364014 C10.29104112 1.02386021 15.10816122 1.55531023 19.92559814 2.09790039 C24.66934307 2.62384918 29.41769257 3.10341058 34.16601562 3.5859375 C41.69200177 4.35636011 49.21475126 5.15292945 56.73583984 5.96972656 C67.65449192 7.15404014 78.57944159 8.26879895 89.5078125 9.359375 C90.30511213 9.43945045 91.10241177 9.51952591 91.92387199 9.60202789 C108.57279487 11.27380616 125.23811724 12.75088817 141.91015625 14.171875 C149.61271615 31.08996651 157.21979138 48.04042498 164.56492615 65.11740112 C164.83225052 65.73865875 165.09957489 66.35991638 165.375 67 C165.64615128 67.6302005 165.91730255 68.260401 166.19667053 68.90969849 C168.2178475 73.59544158 170.27085792 78.26660495 172.33494568 82.93359375 C173.92939084 86.53883039 175.51829928 90.14649795 177.10726929 93.75415039 C177.890189 95.52733767 178.67583933 97.29932189 179.46426392 99.07006836 C180.56526029 101.54366611 181.65663505 104.02130371 182.74609375 106.5 C183.081819 107.24747498 183.41754425 107.99494995 183.76344299 108.76507568 C184.53913719 110.54229396 185.233314 112.35470939 185.91015625 114.171875 C185.58015625 114.831875 185.25015625 115.491875 184.91015625 116.171875 C170.49611183 108.12799508 156.11291905 100.03592174 141.79345703 91.82470703 C136.80950595 88.96769189 131.822944 86.11524261 126.83575439 83.2638855 C125.64082357 82.58067151 124.44595804 81.8973433 123.25115967 81.21389771 C113.77351993 75.79310444 104.2754813 70.40936475 94.75244141 65.06860352 C93.86218262 64.56772217 92.97192383 64.06684082 92.0546875 63.55078125 C91.27456299 63.1132251 90.49443848 62.67566895 89.69067383 62.22485352 C87.91015625 61.171875 87.91015625 61.171875 86.91015625 60.171875 C80.35365654 59.16514823 73.65888706 58.93892035 67.0390625 58.63671875 C66.12739822 58.59301651 65.21573395 58.54931427 64.27644348 58.50428772 C56.27077284 58.12790574 48.26250781 57.82084534 40.253479 57.52572632 C34.78623098 57.31629797 29.35100988 56.99936065 23.8984375 56.55078125 C7.92005814 55.4580471 -2.45854511 59.63567363 -16.10655212 67.72528076 C-24.20346253 72.48989468 -32.62275072 76.64656419 -41.00091553 80.88882446 C-45.43732285 83.13872441 -49.86236709 85.41075803 -54.2890625 87.6796875 C-59.87451693 90.54075278 -65.47303438 93.37281113 -71.08984375 96.171875 C-70.25900537 100.100702 -68.68746345 102.2031821 -66.08984375 105.296875 C-65.27515625 106.26882813 -64.46046875 107.24078125 -63.62109375 108.2421875 C-60.58075997 111.76109234 -57.46857181 115.2078631 -54.3359375 118.64453125 C-52.02796777 121.24149893 -49.83428512 123.90591513 -47.65234375 126.609375 C-43.74319971 131.45122709 -39.61175471 136.03180552 -35.3515625 140.56640625 C-29.84543056 146.90939417 -28.02830326 152.17562421 -26.2578125 160.3359375 C-25.89650993 161.94038223 -25.89650993 161.94038223 -25.52790833 163.57723999 C-25.02366583 165.83008705 -24.52563221 168.08433175 -24.03344727 170.33984375 C-23.27763547 173.79554121 -22.49873752 177.24544438 -21.71679688 180.6953125 C-21.22909042 182.88771468 -20.74271606 185.08041369 -20.2578125 187.2734375 C-20.02458786 188.30578522 -19.79136322 189.33813293 -19.55107117 190.40176392 C-19.34367813 191.36311249 -19.1362851 192.32446106 -18.92260742 193.31494141 C-18.73703781 194.15844147 -18.5514682 195.00194153 -18.36027527 195.8710022 C-17.88642966 199.90255326 -19.06734451 202.46691479 -21.390625 205.68359375 C-21.86765869 206.35124756 -22.34469238 207.01890137 -22.83618164 207.70678711 C-23.61143188 208.77231812 -23.61143188 208.77231812 -24.40234375 209.859375 C-25.49126188 211.37472955 -26.57979172 212.89036318 -27.66796875 214.40625 C-28.23064453 215.18677734 -28.79332031 215.96730469 -29.37304688 216.77148438 C-31.08627042 219.16687885 -32.77188304 221.57936663 -34.44921875 224 C-34.98635498 224.77255127 -35.52349121 225.54510254 -36.0769043 226.34106445 C-37.11056655 227.82932666 -38.14079951 229.31997776 -39.16723633 230.81323242 C-39.63798584 231.48717041 -40.10873535 232.1611084 -40.59375 232.85546875 C-41.00439697 233.44900146 -41.41504395 234.04253418 -41.83813477 234.65405273 C-43.08984375 236.171875 -43.08984375 236.171875 -46.08984375 238.171875 C-50.76542954 227.57342815 -54.49930515 216.67577784 -58.27734375 205.734375 C-58.94868044 203.79872607 -59.62031444 201.86318024 -60.29223633 199.92773438 C-61.93652677 195.1883484 -63.57645908 190.44747067 -65.21435547 185.70587158 C-65.99758878 183.43889603 -66.78170114 181.17222814 -67.56640625 178.90576172 C-71.16547734 168.50859489 -74.74315181 158.10414289 -78.30949402 147.69570923 C-78.82817032 146.18197153 -79.34697986 144.66827948 -79.86592102 143.15463257 C-81.16042184 139.37813304 -82.45252754 135.60084888 -83.73950195 131.82177734 C-85.99910582 125.19622391 -88.2843574 118.58672692 -90.69921875 112.015625 C-91.08577637 110.9519873 -91.47233398 109.88834961 -91.87060547 108.79248047 C-92.57680308 106.85918179 -93.29625712 104.93064995 -94.03173828 103.00830078 C-96.23158953 96.95203484 -96.23158953 96.95203484 -95.59375 93.44140625 C-93.65148155 90.51034659 -91.48227907 87.85792169 -89.15234375 85.234375 C-85.18386644 80.66312419 -81.35458656 76.02373092 -77.65234375 71.234375 C-73.38079938 65.72911895 -68.92644537 60.41506803 -64.36621094 55.14746094 C-60.81435189 51.03881144 -57.38104132 46.85413308 -54.01171875 42.59375 C-50.42607639 38.07525759 -46.74860681 33.63118792 -43.08984375 29.171875 C-41.58956058 27.33877338 -40.08955967 25.50544073 -38.58984375 23.671875 C-37.84992188 22.76824219 -37.11 21.86460937 -36.34765625 20.93359375 C-34.81878687 19.06350612 -33.29282807 17.19103584 -31.76953125 15.31640625 C-30.62871094 13.91455078 -30.62871094 13.91455078 -29.46484375 12.484375 C-28.79195313 11.65550781 -28.1190625 10.82664062 -27.42578125 9.97265625 C-26.65492188 9.04839844 -25.8840625 8.12414062 -25.08984375 7.171875 C-24.71912247 6.4945079 -24.34840118 5.81714081 -23.96644592 5.11924744 C-18.29125651 -3.74499716 -9.07879603 -1.07984575 0 0 Z " fill="#9239FE" transform="translate(403.08984375,309.828125)"/>
<path d="M0 0 C5.2543384 0.36344664 10.51455397 0.54505776 15.77734375 0.74072266 C23.71900532 1.04559746 31.6591593 1.36944225 39.59765625 1.74853516 C40.44984741 1.78719193 41.30203857 1.82584869 42.18005371 1.86567688 C47.61075522 2.13181726 52.97227407 2.63603639 58.37109375 3.28369141 C59.77093678 11.78078443 60.83606313 20.23855669 61.5546875 28.81884766 C61.70494888 30.54387764 61.70494888 30.54387764 61.85824585 32.30375671 C62.17856867 35.9842712 62.49354422 39.66522218 62.80859375 43.34619141 C63.24531364 48.38425101 63.68587762 53.42196406 64.12890625 58.45947266 C64.23598404 59.67770721 64.34306183 60.89594177 64.4533844 62.15109253 C65.34156772 72.15688381 66.3458867 82.14375559 67.55834961 92.1159668 C69.68637095 110.30187141 69.68637095 110.30187141 66.3515625 115.32666016 C65.42988281 116.03435547 64.50820313 116.74205078 63.55859375 117.47119141 C62.54925781 118.28072266 61.53992188 119.09025391 60.5 119.92431641 C58.95119141 121.09220703 58.95119141 121.09220703 57.37109375 122.28369141 C55.57509531 123.75759543 53.78331961 125.23666212 51.99609375 126.72119141 C51.0834375 127.45853516 50.17078125 128.19587891 49.23046875 128.95556641 C46.20164184 131.42166044 43.21984198 133.9393695 40.24609375 136.47119141 C34.37204253 141.46257625 28.45912465 146.40688359 22.47387695 151.26464844 C19.3709433 153.78435038 16.30683099 156.29254072 13.41796875 159.05712891 C12.598125 159.81251953 11.77828125 160.56791016 10.93359375 161.34619141 C9.94552734 162.32265625 9.94552734 162.32265625 8.9375 163.31884766 C2.53059652 165.72753131 -7.12399904 160.04293834 -13.25 157.59619141 C-14.1165773 157.25241455 -14.9831546 156.9086377 -15.87599182 156.55444336 C-17.68766224 155.83392573 -19.49844216 155.11116521 -21.30834961 154.38623047 C-24.08039361 153.27809993 -26.85736492 152.18300298 -29.63476562 151.08837891 C-31.402657 150.38343481 -33.17024635 149.67773272 -34.9375 148.97119141 C-35.76559677 148.64610596 -36.59369354 148.32102051 -37.44688416 147.98608398 C-38.59937401 147.52045044 -38.59937401 147.52045044 -39.77514648 147.04541016 C-40.78580421 146.64261841 -40.78580421 146.64261841 -41.81687927 146.23168945 C-44.74270293 144.70098646 -46.29008022 143.28471433 -47.36016846 140.1232605 C-47.52780701 139.28658844 -47.69544556 138.44991638 -47.86816406 137.58789062 C-48.0655719 136.6361496 -48.26297974 135.68440857 -48.46636963 134.7038269 C-48.66953796 133.67572906 -48.8727063 132.64763123 -49.08203125 131.58837891 C-49.54093368 129.40593299 -50.00059356 127.22364622 -50.4609375 125.04150391 C-51.17238475 121.60716737 -51.87629769 118.17169899 -52.56591797 114.73291016 C-53.2373062 111.40903525 -53.93897738 108.09264528 -54.64453125 104.77587891 C-54.83960266 103.75992645 -55.03467407 102.743974 -55.23565674 101.69723511 C-56.80584545 94.4401382 -59.66634957 89.76206545 -64.62890625 84.28369141 C-65.39976562 83.39939453 -66.170625 82.51509766 -66.96484375 81.60400391 C-67.63773437 80.87955078 -68.310625 80.15509766 -69.00390625 79.40869141 C-72.16234602 75.95046753 -75.18439538 72.42585642 -78.12890625 68.78369141 C-81.05523538 65.16522183 -84.05488161 61.65899457 -87.19140625 58.22119141 C-90.26270745 54.82488479 -93.30464793 51.41189737 -96.25390625 47.90869141 C-96.92679687 47.11720703 -97.5996875 46.32572266 -98.29296875 45.51025391 C-99.62890625 43.28369141 -99.62890625 43.28369141 -99.64160156 41.37939453 C-98.03175777 38.04793379 -94.96809312 37.03614306 -91.76171875 35.52587891 C-91.05991989 35.18132156 -90.35812103 34.83676422 -89.63505554 34.48176575 C-87.3472451 33.3614789 -85.05069165 32.2604426 -82.75390625 31.15869141 C-81.17715845 30.38929225 -79.60123095 29.61820978 -78.02612305 28.84545898 C-75.68732668 27.69805197 -73.34821772 26.55139698 -71.00657654 25.4098053 C-65.43300416 22.69166102 -59.91610747 19.8838161 -54.44140625 16.97119141 C-53.72162598 16.59865234 -53.0018457 16.22611328 -52.26025391 15.84228516 C-48.17675359 13.71479341 -44.24110188 11.44234896 -40.328125 9.01416016 C-26.49669776 0.68838835 -15.97251507 -1.12705956 0 0 Z " fill="#8B21FE" transform="translate(430.62890625,365.71630859375)"/>
<path d="M0 0 C2.09526457 2.64011552 3.64348982 5.1313379 4.96118164 8.23022461 C5.3148732 9.05465561 5.66856476 9.87908661 6.03297424 10.72850037 C6.59092934 12.05205284 6.59092934 12.05205284 7.16015625 13.40234375 C7.55069687 14.31705948 7.94123749 15.23177521 8.34361267 16.17420959 C9.58835499 19.09315982 10.82544699 22.01528397 12.0625 24.9375 C12.89860143 26.90059816 13.73518468 28.86349118 14.57226562 30.82617188 C16.10712511 34.42969242 17.64057089 38.03379399 19.16821289 41.64038086 C19.47449112 42.36333847 19.78076935 43.08629608 20.09632874 43.8311615 C20.54364601 44.90473656 20.54364601 44.90473656 21 46 C21.54415558 47.20499901 21.54415558 47.20499901 22.0993042 48.43434143 C23.09044798 51.25764375 23.24751091 53.42442388 23.24291992 56.41015625 C23.24599655 57.46895996 23.24907318 58.52776367 23.25224304 59.61865234 C23.24146477 61.32335693 23.24146477 61.32335693 23.23046875 63.0625 C23.23001053 64.24537598 23.22955231 65.42825195 23.2290802 66.64697266 C23.22606039 69.15186566 23.21818223 71.65675682 23.20581055 74.16162109 C23.18769999 77.95807715 23.18530006 81.75428674 23.18554688 85.55078125 C23.18062533 87.99218957 23.17479426 90.43359626 23.16796875 92.875 C23.16685593 93.99527588 23.1657431 95.11555176 23.16459656 96.26977539 C23.11978173 103.88440475 22.67757794 111.41602349 22 119 C8.47364941 119.32592344 -5.0517514 119.5739041 -18.58124447 119.72537041 C-24.86539884 119.79810957 -31.14684662 119.89657934 -37.42944336 120.05615234 C-43.50515936 120.20948594 -49.57829116 120.29222473 -55.65579414 120.3282814 C-57.96155003 120.35393754 -60.26718137 120.40403926 -62.57182121 120.48022079 C-76.33870489 120.91674721 -85.35919545 119.97308935 -95.70545101 110.33364677 C-96.92748609 109.12879773 -98.13709164 107.91116868 -99.33192635 106.67934036 C-101.69507839 104.30022682 -104.2448214 102.26554541 -106.875 100.1875 C-107.72835937 99.49011719 -108.58171875 98.79273438 -109.4609375 98.07421875 C-110.29882812 97.38972656 -111.13671875 96.70523438 -112 96 C-113.83345036 94.50014304 -115.66678171 93.0001406 -117.5 91.5 C-118.41394531 90.75234375 -119.32789063 90.0046875 -120.26953125 89.234375 C-122.03822795 87.78702949 -123.80648543 86.33914699 -125.57421875 84.890625 C-131.81612976 79.77766949 -138.07443065 74.68530817 -144.3425293 69.60449219 C-148.25297675 66.43167184 -152.13881686 63.23261845 -156 60 C-152.42181779 58.74927896 -150.07294097 59.26364455 -146.45629883 60.24755859 C-144.78855156 60.69329727 -144.78855156 60.69329727 -143.08711243 61.14804077 C-141.29022224 61.64323715 -141.29022224 61.64323715 -139.45703125 62.1484375 C-137.5648074 62.65578955 -135.6725816 63.16313446 -133.78024578 63.67006874 C-131.12755385 64.38309698 -128.47721742 65.10466536 -125.8269043 65.82647705 C-121.21117656 67.08334122 -116.59398725 68.33465863 -111.97355652 69.5741272 C-109.51646412 70.23418155 -107.06105325 70.90053722 -104.60762024 71.57406616 C-94.33320168 74.95083734 -94.33320168 74.95083734 -84.06443787 74.13328552 C-82.22162099 72.96339532 -80.60196749 71.66181889 -78.9375 70.25 C-77.62955856 69.21757132 -76.31959742 68.18769707 -75.0078125 67.16015625 C-74.34426758 66.6305127 -73.68072266 66.10086914 -72.99707031 65.55517578 C-69.86797522 63.11845992 -66.59754631 60.9068248 -63.3125 58.6875 C-61.9840653 57.77649311 -60.65594912 56.86502161 -59.328125 55.953125 C-57.05500851 54.39738794 -54.77692981 52.85018711 -52.49023438 51.31445312 C-42.5194383 44.61544017 -33.49402127 38.48095385 -26 29 C-24.46877738 27.28229916 -22.92687872 25.57406189 -21.375 23.875 C-18.16293214 20.30727064 -14.98923486 16.70947382 -11.8359375 13.08984375 C-2.76923077 2.76923077 -2.76923077 2.76923077 0 0 Z " fill="#8D00D9" transform="translate(353,681)"/>
<path d="M0 0 C4.10780806 4.10780806 6.98701412 8.8924482 10.06225586 13.78540039 C10.80831556 14.9636535 11.56379518 16.135998 12.32885742 17.30200195 C13.44354879 19.00185212 14.52674971 20.71856169 15.60546875 22.44140625 C16.25668701 23.45920166 16.90790527 24.47699707 17.57885742 25.52563477 C20.56576048 32.8279226 18.93995102 40.97044321 17.94140625 48.62109375 C17.8327977 49.48767105 17.72418915 50.35424835 17.61228943 51.24708557 C17.38402317 53.05824316 17.15279932 54.86903032 16.91870117 56.67944336 C16.56036221 59.45405288 16.21208987 62.2297932 15.86523438 65.00585938 C15.64120889 66.7735116 15.4166199 68.54109252 15.19140625 70.30859375 C15.08719864 71.13669052 14.98299103 71.96478729 14.87562561 72.81797791 C14.46077989 76.00444827 14.01883958 78.94348126 13 82 C13.7535376 81.86013672 14.5070752 81.72027344 15.28344727 81.57617188 C19.04250056 80.88066175 22.80232765 80.18942837 26.5625 79.5 C27.26941986 79.37016724 27.97633972 79.24033447 28.7046814 79.10656738 C38.6286641 77.28814264 48.56450771 75.55430584 58.515625 73.890625 C59.57543076 73.71289551 60.63523651 73.53516602 61.72715759 73.35205078 C67.01868155 72.46533564 72.31127402 71.58593636 77.60571289 70.71679688 C79.5666112 70.38957563 81.52746923 70.06211292 83.48828125 69.734375 C84.39108826 69.58873108 85.29389526 69.44308716 86.22406006 69.29302979 C87.47693817 69.08175446 87.47693817 69.08175446 88.75512695 68.86621094 C89.84492607 68.6868399 89.84492607 68.6868399 90.95674133 68.50384521 C93.17833607 67.95602428 94.96908599 67.03794629 97 66 C105.17597124 65.54067577 113.30358083 68.62158201 121 71 C123.22648353 71.68124773 125.45305366 72.36221248 127.6796875 73.04296875 C134.12337951 75.01709604 140.56280363 77.00480311 147 79 C142.70816261 83.60523728 137.87453623 87.21542878 132.8125 90.9375 C126.08845234 95.92914039 119.40934205 100.96626661 112.8125 106.125 C104.89567125 112.31203562 96.92471684 118.42489852 88.93701172 124.52001953 C84.98000918 127.54338094 81.03532924 130.58272853 77.08984375 133.62109375 C75.04152258 135.19811979 72.99205545 136.77365859 70.94140625 138.34765625 C62.37613346 144.92398929 53.85080464 151.55100784 45.33056641 158.18554688 C40.81580735 161.70049442 36.29869033 165.21241088 31.78198242 168.72485352 C27.85644413 171.77776311 23.93161254 174.83157526 20.0078125 177.88671875 C19.19054687 178.52287109 18.37328125 179.15902344 17.53125 179.81445312 C15.96592348 181.03291752 14.40080794 182.25165303 12.8359375 183.47070312 C12.12953125 184.02048828 11.423125 184.57027344 10.6953125 185.13671875 C10.07672363 185.61842529 9.45813477 186.10013184 8.82080078 186.59643555 C8.21993652 187.05961182 7.61907227 187.52278809 7 188 C6.32565918 188.55405518 5.65131836 189.10811035 4.95654297 189.67895508 C3 191 3 191 0 191 C0 127.97 0 64.94 0 0 Z " fill="#8C00DC" transform="translate(0,233)"/>
<path d="M0 0 C0.75539063 0.43828125 1.51078125 0.8765625 2.2890625 1.328125 C9.59444013 5.53684373 16.95824862 9.61582026 24.375 13.625 C33.24487773 18.42942158 41.96971686 23.44788393 50.66308594 28.56347656 C59.49403841 33.74358057 68.42472578 38.73177049 77.3894043 43.67504883 C79.4475034 44.81032845 81.49664472 45.96206793 83.53451538 47.13327026 C86.95713039 49.05859824 86.95713039 49.05859824 90.57188416 50.44429016 C99.74123312 54.53718001 99.74123312 54.53718001 101.93238831 58.82424927 C103.66809217 64.26898287 103.96076986 69.94623577 104.37109375 75.61328125 C104.54975757 77.43366939 104.73401868 79.25351604 104.92359924 81.07279968 C105.4044844 85.84003931 105.80588513 90.61078977 106.19165039 95.38653564 C106.60075758 100.25550033 107.0916897 105.11618716 107.57226562 109.97851562 C108.25709198 117.06865695 108.92215381 124.16009245 109.50952148 131.2590332 C109.57527878 132.00243958 109.64103607 132.74584595 109.70878601 133.51177979 C109.96263649 136.71313474 110.02779313 138.91662062 109 142 C84.77802774 134.16584339 60.59030901 126.23251148 36.4375 118.1875 C35.23067566 117.78605774 34.02385132 117.38461548 32.78045654 116.9710083 C29.35175647 115.83005692 25.92379084 114.68692933 22.49609375 113.54296875 C21.46158585 113.1987941 20.42707794 112.85461945 19.36122131 112.50001526 C18.41758224 112.18443161 17.47394318 111.86884796 16.50170898 111.54370117 C15.26395973 111.13072029 15.26395973 111.13072029 14.00120544 110.70939636 C12 110 12 110 10 109 C9.55862427 106.86003113 9.55862427 106.86003113 9.28564453 103.98510742 C9.17845093 102.90445007 9.07125732 101.82379272 8.96081543 100.71038818 C8.85257446 99.52076477 8.7443335 98.33114136 8.6328125 97.10546875 C8.45329041 95.253237 8.45329041 95.253237 8.2701416 93.36358643 C7.94637869 90.0024369 7.63104875 86.64070221 7.31970978 83.27839279 C6.99606266 79.80290519 6.66215678 76.32840301 6.32958984 72.85375977 C5.66444919 65.8830485 5.01268099 58.91114039 4.36572266 51.9387207 C4.02285079 48.24609603 3.67785682 44.55367718 3.33203125 40.86132812 C2.75759253 34.7205474 2.18867249 28.57927814 1.625 22.4375 C1.53978088 21.51021088 1.45456177 20.58292175 1.36676025 19.62753296 C1.13023066 17.04225469 0.89650791 14.45674207 0.6640625 11.87109375 C0.59562134 11.12289368 0.52718018 10.3746936 0.45666504 9.6038208 C0.17022063 6.37994865 0 3.240924 0 0 Z " fill="#8400F0" transform="translate(489,369)"/>
<path d="M0 0 C2.34064416 2.1286651 3.65521723 4.01940168 4.91357422 6.91381836 C5.2575827 7.6957103 5.60159119 8.47760223 5.95602417 9.28318787 C6.31858307 10.12688431 6.68114197 10.97058075 7.0546875 11.83984375 C7.4381131 12.71717667 7.8215387 13.59450958 8.21658325 14.49842834 C9.4426913 17.30861616 10.6588408 20.12299453 11.875 22.9375 C12.6855716 24.79779907 13.49676308 26.65782817 14.30859375 28.51757812 C18.2860728 37.64519522 22.22158542 46.78787678 26 56 C9.08645084 64.77599498 -7.85294144 73.50074938 -24.8125 82.1875 C-26.15512405 82.8754213 -26.15512405 82.8754213 -27.52487183 83.57723999 C-30.10617104 84.89964618 -32.68778531 86.22143495 -35.26953125 87.54296875 C-36.03312958 87.93411865 -36.79672791 88.32526855 -37.58346558 88.72827148 C-42.37549252 91.17970079 -47.18239934 93.5992012 -52 96 C-51.16916162 99.928827 -49.5976197 102.0313071 -47 105.125 C-46.1853125 106.09695313 -45.370625 107.06890625 -44.53125 108.0703125 C-41.49091622 111.58921734 -38.37872806 115.0359881 -35.24609375 118.47265625 C-32.93812402 121.06962393 -30.74444137 123.73404013 -28.5625 126.4375 C-24.65335596 131.27935209 -20.52191096 135.85993052 -16.26171875 140.39453125 C-10.75558681 146.73751917 -8.93845951 152.00374921 -7.16796875 160.1640625 C-6.80666618 161.76850723 -6.80666618 161.76850723 -6.43806458 163.40536499 C-5.93382208 165.65821205 -5.43578846 167.91245675 -4.94360352 170.16796875 C-4.18779172 173.62366621 -3.40889377 177.07356938 -2.62695312 180.5234375 C-2.13924667 182.71583968 -1.65287231 184.90853869 -1.16796875 187.1015625 C-0.93474411 188.13391022 -0.70151947 189.16625793 -0.46122742 190.22988892 C-0.25383438 191.19123749 -0.04644135 192.15258606 0.16723633 193.14306641 C0.35280594 193.98656647 0.53837555 194.83006653 0.72956848 195.6991272 C1.20341409 199.73067826 0.02249924 202.29503979 -2.30078125 205.51171875 C-2.77781494 206.17937256 -3.25484863 206.84702637 -3.74633789 207.53491211 C-4.52158813 208.60044312 -4.52158813 208.60044312 -5.3125 209.6875 C-6.40141813 211.20285455 -7.48994797 212.71848818 -8.578125 214.234375 C-9.14080078 215.01490234 -9.70347656 215.79542969 -10.28320312 216.59960938 C-11.99642667 218.99500385 -13.68203929 221.40749163 -15.359375 223.828125 C-15.89651123 224.60067627 -16.43364746 225.37322754 -16.98706055 226.16918945 C-18.0207228 227.65745166 -19.05095576 229.14810276 -20.07739258 230.64135742 C-20.54814209 231.31529541 -21.0188916 231.9892334 -21.50390625 232.68359375 C-21.91455322 233.27712646 -22.3252002 233.87065918 -22.74829102 234.48217773 C-24 236 -24 236 -27 238 C-31.67558579 227.40155315 -35.4094614 216.50390284 -39.1875 205.5625 C-39.85883669 203.62685107 -40.53047069 201.69130524 -41.20239258 199.75585938 C-42.84668302 195.0164734 -44.48661533 190.27559567 -46.12451172 185.53399658 C-46.90774503 183.26702103 -47.69185739 181.00035314 -48.4765625 178.73388672 C-52.07563359 168.33671989 -55.65330806 157.93226789 -59.21965027 147.52383423 C-59.73832657 146.01009653 -60.25713611 144.49640448 -60.77607727 142.98275757 C-62.07057809 139.20625804 -63.36268379 135.42897388 -64.6496582 131.64990234 C-66.90926207 125.02434891 -69.19451365 118.41485192 -71.609375 111.84375 C-71.99593262 110.7801123 -72.38249023 109.71647461 -72.78076172 108.62060547 C-73.48695933 106.68730679 -74.20641337 104.75877495 -74.94189453 102.83642578 C-77.14174578 96.78015984 -77.14174578 96.78015984 -76.50390625 93.26953125 C-74.5616378 90.33847159 -72.39243532 87.68604669 -70.0625 85.0625 C-66.09402269 80.49124919 -62.26474281 75.85185592 -58.5625 71.0625 C-54.29095563 65.55724395 -49.83660162 60.24319303 -45.27636719 54.97558594 C-41.72450814 50.86693644 -38.29119757 46.68225808 -34.921875 42.421875 C-31.33623264 37.90338259 -27.65876306 33.45931292 -24 29 C-22.49971683 27.16689838 -20.99971592 25.33356573 -19.5 23.5 C-18.39205078 22.14648438 -18.39205078 22.14648438 -17.26171875 20.765625 C-15.72096287 18.8815919 -14.1819701 16.99611588 -12.64453125 15.109375 C-8.49119048 10.01683657 -4.30391333 4.96605384 0 0 Z " fill="#9239FF" transform="translate(384,310)"/>
<path d="M0 0 C39.93 0 79.86 0 121 0 C117.62355501 12.38029831 117.62355501 12.38029831 115.87792969 17.56494141 C115.48562164 18.73444839 115.0933136 19.90395538 114.68911743 21.10890198 C114.27092743 22.34397995 113.85273743 23.57905792 113.421875 24.8515625 C112.97318129 26.18284419 112.52464812 27.51418 112.07626343 28.8455658 C110.88464726 32.37964165 109.68806959 35.91201673 108.48978424 39.44383621 C107.74809766 41.63060881 107.00768664 43.81780994 106.26751709 46.00509644 C98.20921278 69.80580002 89.84813138 93.47994341 81 117 C78 117 78 117 76.0546875 115.19921875 C75.33539062 114.37035156 74.61609375 113.54148437 73.875 112.6875 C73.07835937 111.77226563 72.28171875 110.85703125 71.4609375 109.9140625 C66.76345896 104.3516514 62.1791452 98.70256733 57.609375 93.03515625 C56.83078125 92.07480469 56.0521875 91.11445312 55.25 90.125 C54.55390625 89.26132813 53.8578125 88.39765625 53.140625 87.5078125 C49.4613411 83.19741056 45.48324131 79.47273073 41.0625 75.9375 C36.6432546 72.36284793 32.30379471 68.71263995 28 65 C23.80851751 61.38959389 19.59608751 57.81392032 15.3125 54.3125 C14.4987793 53.63179443 13.68505859 52.95108887 12.84667969 52.24975586 C10.0664363 49.96696186 10.0664363 49.96696186 7.10131836 48.19238281 C2.47061472 45.10133036 -0.5448835 42.8599611 -1.90307617 37.30932617 C-2.25502496 33.00411253 -2.01079897 28.7411555 -1.75 24.4375 C-1.70328889 22.95653072 -1.66158627 21.47539462 -1.625 19.99414062 C-1.42241421 13.25759975 -0.83748047 6.69984375 0 0 Z " fill="#8300F0" transform="translate(480,0)"/>
<path d="M0 0 C0.38220703 0.71430176 0.76441406 1.42860352 1.15820312 2.16455078 C2.29522483 4.28774383 3.43387166 6.41006701 4.57373047 8.53173828 C5.86708784 10.94006745 7.15138287 13.35295197 8.43017578 15.76904297 C12.26813397 23.06561098 12.26813397 23.06561098 16.7109375 30 C24.01181734 40.54278677 22.79438456 51.60454551 22 64 C15.78888485 63.32806244 10.03524169 61.66954004 4.0625 59.875 C1.93362785 59.24467649 -0.19527949 58.61447183 -2.32421875 57.984375 C-3.41782715 57.65888672 -4.51143555 57.33339844 -5.63818359 56.99804688 C-11.17020555 55.3557153 -16.71017272 53.74076529 -22.25 52.125 C-23.26698975 51.82706543 -24.28397949 51.52913086 -25.33178711 51.22216797 C-26.27932861 50.94518066 -27.22687012 50.66819336 -28.203125 50.3828125 C-29.03489258 50.13934082 -29.86666016 49.89586914 -30.72363281 49.64501953 C-32.80735121 49.05458796 -34.89576879 48.51185636 -37 48 C-37.08564209 48.80219971 -37.17128418 49.60439941 -37.25952148 50.4309082 C-37.64874408 54.05848386 -38.04306016 57.68548809 -38.4375 61.3125 C-38.63956055 63.20645508 -38.63956055 63.20645508 -38.84570312 65.13867188 C-39.04389648 66.95141602 -39.04389648 66.95141602 -39.24609375 68.80078125 C-39.36654053 69.91622314 -39.4869873 71.03166504 -39.61108398 72.1809082 C-40 75 -40 75 -41 78 C-41.36414516 80.58315476 -41.69748338 83.15970148 -42 85.75 C-42.16605353 87.14069835 -42.33271569 88.53132416 -42.5 89.921875 C-42.5721875 90.53643555 -42.644375 91.15099609 -42.71875 91.78417969 C-42.8115625 92.51540039 -42.904375 93.24662109 -43 94 C-43.10546143 95.0928833 -43.21092285 96.1857666 -43.31958008 97.31176758 C-44.06135145 101.33255701 -45.48457378 104.5244375 -47.38671875 108.08984375 C-48.11811359 109.50612165 -48.84904588 110.92263848 -49.57958984 112.33935547 C-49.97176697 113.09190613 -50.36394409 113.84445679 -50.76800537 114.61981201 C-52.958002 118.85083994 -55.07740642 123.11726752 -57.20703125 127.37890625 C-58.12765542 129.21551011 -59.04847549 131.05201579 -59.96948242 132.88842773 C-60.91725806 134.77973349 -61.86492894 136.67109174 -62.8125 138.5625 C-63.29667389 139.52890411 -63.78084778 140.49530823 -64.2796936 141.49099731 C-70.28230799 153.4794649 -76.25587314 165.47514482 -81.94262695 177.61743164 C-82.31605225 178.41270264 -82.68947754 179.20797363 -83.07421875 180.02734375 C-83.53187622 181.01335571 -83.53187622 181.01335571 -83.9987793 182.01928711 C-84.32918213 182.67292236 -84.65958496 183.32655762 -85 184 C-85.40758545 184.84723633 -85.8151709 185.69447266 -86.23510742 186.56738281 C-88.5209464 189.71803982 -90.55750988 190.48109587 -94.1640625 191.89453125 C-95.36804688 192.37470703 -96.57203125 192.85488281 -97.8125 193.34960938 C-99.08325565 193.83744199 -100.35408996 194.32506976 -101.625 194.8125 C-102.90422505 195.31819871 -104.18287857 195.82534572 -105.4609375 196.33398438 C-114.75815264 200 -114.75815264 200 -116 200 C-115.69029995 193.99855372 -115.35034791 187.99920122 -115 182 C-114.94732971 181.06957886 -114.89465942 180.13915771 -114.84039307 179.18054199 C-112.01298197 130.2697591 -112.01298197 130.2697591 -97.94238281 111.69189453 C-94.35930897 106.72621175 -91.49160379 101.33459071 -88.5 96 C-87.25427057 93.83422735 -86.00558213 91.67015393 -84.75390625 89.5078125 C-82.85786897 86.22253569 -80.96344536 82.93637918 -79.07373047 79.64746094 C-77.19976636 76.387192 -75.31924549 73.13078235 -73.4375 69.875 C-72.87804687 68.89789062 -72.31859375 67.92078125 -71.7421875 66.9140625 C-67.3735456 59.37683936 -63.10232405 52.19101247 -56.0625 46.875 C-51.30628881 43.1347414 -46.88866568 39.16421694 -42.5 35 C-37.46276909 30.23319483 -32.31896314 25.74840838 -26.89453125 21.421875 C-22.53488929 17.77413139 -18.42249497 13.87162566 -14.30078125 9.95898438 C-3.78914655 0 -3.78914655 0 0 0 Z " fill="#8B22FF" transform="translate(778,467)"/>
<path d="M0 0 C7.80666271 2.31436461 14.99876898 5.69531611 22.31869507 9.20477295 C26.10905899 11.02102103 29.9082215 12.81868801 33.70703125 14.6171875 C34.48573074 14.98619171 35.26443024 15.35519592 36.06672668 15.73538208 C43.73717646 19.36302491 51.45566756 22.88055116 59.1875 26.375 C73.12286334 32.67896726 87.02055879 39.06175018 100.90185547 45.48388672 C101.70805328 45.8568689 102.5142511 46.22985107 103.34487915 46.61413574 C104.9435197 47.35373976 106.54213252 48.09340372 108.14071655 48.83312988 C113.14757712 51.14839736 118.16115852 53.44843106 123.1796875 55.73828125 C124.41028833 56.3010773 125.64084028 56.86398026 126.87133789 57.42700195 C129.10065834 58.44605209 131.33152371 59.46173197 133.56420898 60.47338867 C134.52915283 60.91529541 135.49409668 61.35720215 136.48828125 61.8125 C137.31884033 62.19019531 138.14939941 62.56789063 139.00512695 62.95703125 C141 64 141 64 143 66 C125.12666432 69.51974907 107.11613134 72.00485426 89.08300781 74.55444336 C78.67494686 76.0296429 68.27870818 77.54464183 57.9375 79.4375 C51.44937803 80.5980567 44.95090455 81.67832995 38.4375 82.6875 C37.61693115 82.81890381 36.7963623 82.95030762 35.95092773 83.08569336 C34.76672241 83.26563843 34.76672241 83.26563843 33.55859375 83.44921875 C32.87079834 83.55580811 32.18300293 83.66239746 31.47436523 83.7722168 C24.0530908 84.45539875 18.9974863 83.67143777 12.14453125 80.89453125 C11.32103683 80.57344894 10.49754242 80.25236664 9.64909363 79.92155457 C7.03174106 78.89778625 4.42218114 77.85564721 1.8125 76.8125 C0.08056934 76.13091194 -1.65184936 75.45056266 -3.38476562 74.77148438 C-6.73013582 73.45898203 -10.07208244 72.13830005 -13.41162109 70.81103516 C-18.43835786 68.81775279 -23.49321674 66.90415275 -28.55981445 65.0144043 C-31 64 -31 64 -34 62 C-32.6027689 58.30186644 -30.93435305 54.90404002 -29.015625 51.44921875 C-28.1169873 49.82922974 -28.1169873 49.82922974 -27.20019531 48.17651367 C-26.55663086 47.02513916 -25.91306641 45.87376465 -25.25 44.6875 C-24.92140991 44.09740143 -24.59281982 43.50730286 -24.25427246 42.89932251 C-18.79071812 33.08828705 -13.19107968 23.36241809 -7.48144531 13.69213867 C-4.82925156 9.19179041 -2.24460129 4.71840483 0 0 Z " fill="#8400F0" transform="translate(173,655)"/>
<path d="M0 0 C3.76275059 3.66697149 7.22882748 7.49338048 10.625 11.5 C11.14425049 12.10948486 11.66350098 12.71896973 12.19848633 13.34692383 C13.8011111 15.22949154 15.4006174 17.11467767 17 19 C17.96993343 20.13942393 18.93998119 21.27875055 19.91015625 22.41796875 C24.98104236 28.38200223 29.9911628 34.3902706 34.9296875 40.46484375 C35.95449219 41.71974609 35.95449219 41.71974609 37 43 C37.66257813 43.98742187 38.32515625 44.97484375 39.0078125 45.9921875 C42.84148335 50.54876665 48.58592616 52.12673853 54 54.1875 C55.76500854 54.87936401 55.76500854 54.87936401 57.56567383 55.58520508 C60.07182174 56.56364513 62.57958709 57.53490439 65.09228516 58.49609375 C68.39354011 59.76117585 71.68082533 61.05892447 74.96505737 62.36747742 C77.57096854 63.40341699 80.18185872 64.42632441 82.79418945 65.44595337 C84.65001182 66.17281713 86.50181523 66.90991548 88.35351562 67.6472168 C94.44241212 69.98623366 99.4830831 71.86581155 106 71 C106.98282959 70.88068115 107.96565918 70.7613623 108.97827148 70.63842773 C112.45210845 70.17998128 115.91222256 69.66036362 119.375 69.125 C121.12683594 68.86396484 121.12683594 68.86396484 122.9140625 68.59765625 C128.87249097 67.69587616 134.77846434 66.67382945 140.6796875 65.45556641 C144.53666919 64.69829285 148.41957357 64.16082742 152.3125 63.625 C153.19204346 63.50125 154.07158691 63.3775 154.9777832 63.25 C160.3764428 62.49326956 165.77788791 61.75736986 171.1796875 61.0234375 C173.68231956 60.68249638 176.18492351 60.34134884 178.6875 60 C179.92628906 59.83161621 181.16507813 59.66323242 182.44140625 59.48974609 C190.11354346 58.43492914 197.75968202 57.29275799 205.37182617 55.86328125 C209.99864087 55.02938882 214.31947397 54.89610375 219 55 C216.2831829 57.84830109 213.52315005 60.17075242 210.28125 62.3984375 C209.35779785 63.03644287 208.4343457 63.67444824 207.48291016 64.33178711 C206.4985498 65.00604736 205.51418945 65.68030762 204.5 66.375 C202.43470477 67.80050447 200.3696046 69.22629158 198.3046875 70.65234375 C196.73605957 71.73298096 196.73605957 71.73298096 195.13574219 72.83544922 C190.28536767 76.18358223 185.45390473 79.55850668 180.625 82.9375 C179.76970703 83.5341748 178.91441406 84.13084961 178.03320312 84.74560547 C177.25138672 85.2923291 176.46957031 85.83905273 175.6640625 86.40234375 C174.97779785 86.88179443 174.2915332 87.36124512 173.58447266 87.85522461 C172.03931592 88.90766584 172.03931592 88.90766584 171 90 C163.31731429 89.53445878 156.1649067 87.62965978 148.7578125 85.62109375 C146.85543797 85.11465078 144.95306243 84.60821156 143.05062675 84.10199833 C140.4106439 83.39788634 137.77224154 82.68795328 135.1338501 81.97790527 C130.49125945 80.72899154 125.84722543 79.48550547 121.20162964 78.24781799 C118.73324087 77.58955492 116.26585754 76.92750773 113.79959106 76.26133728 C112.68768402 75.96425369 111.57577698 75.6671701 110.43017578 75.36108398 C109.45138458 75.0976268 108.47259338 74.83416962 107.46414185 74.56272888 C104.93381239 73.88868226 104.93381239 73.88868226 102 74 C108.77446266 79.77634433 115.56720423 85.50968866 122.54296875 91.04296875 C127.06784881 94.64704651 131.52793103 98.3307709 136 102 C137.83310162 103.50028317 139.66643427 105.00028408 141.5 106.5 C152.5 115.5 152.5 115.5 155.22265625 117.73046875 C157.14346528 119.300075 159.06820935 120.86487354 160.99609375 122.42578125 C161.96675781 123.21339844 162.93742188 124.00101563 163.9375 124.8125 C164.81277344 125.52019531 165.68804687 126.22789062 166.58984375 126.95703125 C168.85152596 128.874146 170.9179838 130.89214756 173 133 C163.35069345 133.32648566 153.70332697 133.57415977 144.04967403 133.72537041 C139.56521034 133.79800349 135.08456213 133.89622941 130.60229492 134.05615234 C97.59487987 135.20342868 97.59487987 135.20342868 89.27772522 128.20388794 C87.03013409 125.85979704 85.09191531 123.44023845 83.27284241 120.75212097 C81.17287339 117.86142553 78.56723321 115.7140162 75.875 113.375 C72.87861121 110.63464443 69.8823185 107.89426262 66.89453125 105.14453125 C66.36891602 104.66137451 65.84330078 104.17821777 65.30175781 103.68041992 C64.21665184 102.67687742 63.13662964 101.66781254 62.06152344 100.65356445 C59.25280538 98.01385117 56.4166677 95.51262606 53.37109375 93.1484375 C41.13696292 83.28995943 35.27982925 70.28561554 28.65136719 56.41943359 C26.48177253 51.92692284 24.16665798 47.52272456 21.8125 43.125 C21.03278524 41.65160684 20.25414548 40.17764431 19.4765625 38.703125 C19.0837207 37.95869141 18.69087891 37.21425781 18.28613281 36.44726562 C16.81647974 33.65079593 15.35672652 30.8492873 13.8984375 28.046875 C13.36500732 27.02190918 12.83157715 25.99694336 12.28198242 24.94091797 C11.25245718 22.96131639 10.22390377 20.98120895 9.1965332 19.00048828 C6.52627736 13.86716336 3.78996392 8.79165729 0.89379883 3.78173828 C0 2 0 2 0 0 Z " fill="#8B22FE" transform="translate(96,667)"/>
<path d="M0 0 C0.33 0 0.66 0 1 0 C1 10.56 1 21.12 1 32 C2.32 32.66 3.64 33.32 5 34 C6.10245122 34.84535065 7.1742604 35.7319076 8.21484375 36.65234375 C8.81200195 37.17602539 9.40916016 37.69970703 10.02441406 38.23925781 C10.65573242 38.79967773 11.28705078 39.36009766 11.9375 39.9375 C13.28461885 41.11910254 14.63228473 42.30008169 15.98046875 43.48046875 C16.65513184 44.07263184 17.32979492 44.66479492 18.02490234 45.27490234 C28.01735432 54.00254952 38.14505339 62.67321979 48.8125 70.5625 C52.28609181 73.25331056 54.71564857 75.99034628 57.21875 79.578125 C59.58885601 82.80063756 62.19288093 85.79158278 64.8125 88.8125 C78.2096363 104.31445445 78.2096363 104.31445445 82 110 C-13.52410611 116.72176558 -13.52410611 116.72176558 -55.87969971 119.61294556 C-59.02722662 119.82787642 -62.17463862 120.04438557 -65.32196045 120.26229858 C-68.99087095 120.51623118 -72.65999196 120.76686147 -76.32930756 121.01486969 C-78.26585282 121.14651716 -80.20217697 121.28140506 -82.13848877 121.41644287 C-88.77170193 121.86049724 -95.35184735 122.11601625 -102 122 C-98.81469156 119.87646104 -96.2033762 119.02682541 -92.54296875 117.93359375 C-91.89663483 117.73902588 -91.2503009 117.54445801 -90.5843811 117.34399414 C-88.45347556 116.70375769 -86.32052522 116.07063507 -84.1875 115.4375 C-82.6915119 114.98947585 -81.19566403 114.54098321 -79.69995117 114.09204102 C-76.62726903 113.17062469 -73.55376234 112.2520414 -70.47949219 111.3359375 C-66.38304367 110.11505585 -62.28882598 108.88693822 -58.1953125 107.65625 C-48.29188044 104.67936421 -38.38569531 101.71176058 -28.4765625 98.75390625 C-14.87465368 94.68953474 -1.29829261 90.55481228 12.25292969 86.32446289 C24.79693334 82.41933555 37.39266557 78.69512173 50 75 C41.65078508 70.71033871 33.19106161 66.81658598 24.5625 63.125 C23.28783644 62.57615526 22.01334574 62.0269089 20.73901367 61.47729492 C17.25766342 59.9766316 13.77468534 58.47978646 10.29125977 56.98394775 C3.62897795 54.12292897 -3.03167153 51.25815109 -9.68997192 48.38787842 C-12.15935857 47.32461705 -14.63029435 46.26501582 -17.10131836 45.20556641 C-18.62360777 44.54997328 -20.14582801 43.89421949 -21.66796875 43.23828125 C-22.36662048 42.93987839 -23.06527222 42.64147552 -23.78509521 42.33403015 C-26.7242091 41.06367798 -29.32637858 39.78241428 -32 38 C-30.78095129 36.5777765 -29.56188958 35.15556414 -28.34277344 33.73339844 C-27.26768983 32.47902437 -26.19282521 31.22446259 -25.11816406 29.96972656 C-22.35460731 26.7437036 -19.58805519 23.52039603 -16.8125 20.3046875 C-11.54952965 14.19907626 -6.37164351 8.06451815 -1.42578125 1.6953125 C-0.72001953 0.85613281 -0.72001953 0.85613281 0 0 Z " fill="#8300F0" transform="translate(478,9)"/>
<path d="M0 0 C7.97711584 0.64221594 15.87573927 1.60875681 23.796875 2.7421875 C25.58463348 2.99574509 25.58463348 2.99574509 27.4085083 3.25442505 C29.91642159 3.61106659 32.42412997 3.96915175 34.93164062 4.32861328 C38.72454866 4.87135805 42.51845997 5.40663946 46.3125 5.94140625 C58.28013389 7.64255449 70.19730049 9.36290517 82 12 C82.80580391 18.8204668 83.13751358 25.51794187 83.09765625 32.3828125 C83.0962413 33.32309296 83.09482635 34.26337341 83.09336853 35.23214722 C83.08783008 38.19646568 83.07528962 41.16070488 83.0625 44.125 C83.05747703 46.15104057 83.05291553 48.17708233 83.04882812 50.203125 C83.03788092 55.13544659 83.02065981 60.06770992 83 65 C68.66178571 68.38050694 54.32156909 71.75666921 39.9375 74.9375 C39.000271 75.14850342 38.06304199 75.35950684 37.09741211 75.5769043 C36.22866455 75.76679932 35.35991699 75.95669434 34.46484375 76.15234375 C33.34517212 76.3997229 33.34517212 76.3997229 32.20288086 76.65209961 C29.77171044 77.03605371 27.45735717 77.05861784 25 77 C24.74565186 76.0831543 24.49130371 75.16630859 24.22924805 74.22167969 C20.64855756 61.57398077 16.37070082 49.18359764 12.04223633 36.77539062 C10.80073142 33.216262 9.56492917 29.65519207 8.33007812 26.09375 C7.53938636 23.8175958 6.7483823 21.54155007 5.95703125 19.265625 C5.58931107 18.20732483 5.22159088 17.14902466 4.84272766 16.05865479 C4.49864365 15.0728241 4.15455963 14.08699341 3.80004883 13.07128906 C3.49980301 12.20989319 3.19955719 11.34849731 2.89021301 10.46099854 C2.26996383 8.74631641 1.59799477 7.04984092 0.88749695 5.37054443 C0 3 0 3 0 0 Z " fill="#8D00D9" transform="translate(691,656)"/>
<path d="M0 0 C2.34064416 2.1286651 3.65521723 4.01940168 4.91357422 6.91381836 C5.2575827 7.6957103 5.60159119 8.47760223 5.95602417 9.28318787 C6.31858307 10.12688431 6.68114197 10.97058075 7.0546875 11.83984375 C7.4381131 12.71717667 7.8215387 13.59450958 8.21658325 14.49842834 C9.4426913 17.30861616 10.6588408 20.12299453 11.875 22.9375 C12.6855716 24.79779907 13.49676308 26.65782817 14.30859375 28.51757812 C18.2860728 37.64519522 22.22158542 46.78787678 26 56 C9.08645084 64.77599498 -7.85294144 73.50074938 -24.8125 82.1875 C-26.15512405 82.8754213 -26.15512405 82.8754213 -27.52487183 83.57723999 C-30.10617104 84.89964618 -32.68778531 86.22143495 -35.26953125 87.54296875 C-36.03312958 87.93411865 -36.79672791 88.32526855 -37.58346558 88.72827148 C-39.02302064 89.46469628 -40.46349312 90.19933126 -41.90499878 90.93193054 C-43.34260548 91.6648484 -44.77662808 92.40482639 -46.20755005 93.15071106 C-46.91306 93.51412094 -47.61856995 93.87753082 -48.34545898 94.25195312 C-49.28529884 94.74109192 -49.28529884 94.74109192 -50.24412537 95.2401123 C-52.9485361 96.4104968 -55.33258449 96.42096801 -58.25 96.3125 C-59.35214844 96.27769531 -60.45429688 96.24289062 -61.58984375 96.20703125 C-66.73651122 95.89457607 -71.8697116 95.51765072 -77 95 C-74.35523513 90.14809323 -70.90461635 86.09331056 -67.375 81.875 C-66.10794389 80.34906546 -64.84101672 78.82302385 -63.57421875 77.296875 C-62.65261963 76.18989258 -62.65261963 76.18989258 -61.71240234 75.06054688 C-59.52345564 72.42657052 -57.35350374 69.77787538 -55.1875 67.125 C-54.14142578 65.84496094 -54.14142578 65.84496094 -53.07421875 64.5390625 C-52.38972656 63.70117188 -51.70523437 62.86328125 -51 62 C-49.50014304 60.16654964 -48.0001406 58.33321829 -46.5 56.5 C-45.7575 55.5925 -45.015 54.685 -44.25 53.75 C-19.5 23.5 -19.5 23.5 -17.26171875 20.765625 C-15.72096287 18.8815919 -14.1819701 16.99611588 -12.64453125 15.109375 C-8.49119048 10.01683657 -4.30391333 4.96605384 0 0 Z " fill="#C090FF" transform="translate(384,310)"/>
<path d="M0 0 C0.33 0 0.66 0 1 0 C0.97113205 0.73756531 0.9422641 1.47513062 0.91252136 2.23504639 C0.65046366 9.23559117 0.45335813 16.23439982 0.32644176 23.23849106 C0.2589846 26.83871732 0.16777903 30.43484731 0.01928711 34.03271484 C-1.43277499 50.6038171 -1.43277499 50.6038171 3.80444336 65.5012207 C6.86414442 68.63824591 10.23052422 70.79443137 14 73 C15.42498346 74.19525041 16.83002143 75.41610182 18.1875 76.6875 C18.79980469 77.21730469 19.41210938 77.74710938 20.04296875 78.29296875 C23.23984896 81.08146506 26.37666263 83.93648758 29.5234375 86.78125 C32.51305965 89.45964965 35.54892436 92.08129511 38.6015625 94.6875 C39.06304688 95.120625 39.52453125 95.55375 40 96 C40 96.33 40 96.66 40 97 C32.80940589 97.1972786 26.04263719 96.44593783 18.94140625 95.35546875 C17.79824448 95.18501541 16.6550827 95.01456207 15.47727966 94.83894348 C11.83807057 94.29458099 8.20032707 93.7410141 4.5625 93.1875 C2.15438182 92.82690622 -0.25382071 92.46687526 -2.66210938 92.10742188 C-15.46173136 90.18894118 -28.24350598 88.18745703 -41 86 C-38.72556092 92.55725807 -36.450964 99.11446138 -34.17626953 105.67163086 C-33.40637847 107.89102001 -32.6365204 110.1104206 -31.86669922 112.32983398 C-31.11874996 114.4861766 -30.37062128 116.64245698 -29.62231445 118.79867554 C-28.8735952 120.95779896 -28.12603797 123.11732568 -27.37963867 125.2772522 C-25.48807286 130.74504031 -23.57427722 136.20323813 -21.6171875 141.64794922 C-21.24013672 142.70557968 -20.86308594 143.76321014 -20.47460938 144.85289001 C-19.7568298 146.86384616 -19.03188427 148.872263 -18.29882812 150.87770081 C-17.98107422 151.77198288 -17.66332031 152.66626495 -17.3359375 153.58764648 C-16.91127197 154.76181374 -16.91127197 154.76181374 -16.47802734 155.95970154 C-16 158 -16 158 -17 161 C-22.37697018 155.13999231 -27.54779819 149.16607135 -32.55078125 142.984375 C-35.31810802 139.61238513 -38.15150415 136.30337679 -41 133 C-45.31235388 127.99531435 -49.53957988 122.93379083 -53.69921875 117.80078125 C-55.41177615 115.71605518 -57.14005526 113.65437008 -58.89453125 111.60546875 C-59.6369104 110.73740601 -59.6369104 110.73740601 -60.39428711 109.85180664 C-61.35417529 108.73238552 -62.31705212 107.61551749 -63.28344727 106.50170898 C-65.86714721 103.48668297 -68.06691172 100.46931738 -70 97 C-65.78216982 94.72587037 -61.91657855 92.8763043 -57.265625 91.703125 C-49.31966327 89.52919278 -42.89919388 87.20909181 -38.41796875 79.94921875 C-35.72290268 74.84111351 -33.48341998 69.55303771 -31.31933594 64.20166016 C-29.27522105 59.24116374 -26.91137399 54.44650586 -24.5625 49.625 C-23.66315337 47.73610968 -22.76472924 45.84677987 -21.8671875 43.95703125 C-17.22507212 34.25745333 -12.36983354 24.66245323 -7.53662109 15.05712891 C-5.01599065 10.04229979 -2.50804881 5.02113049 0 0 Z " fill="#8100F2" transform="translate(732,570)"/>
<path d="M0 0 C1.32 0 2.64 0 4 0 C11.7025599 16.91809151 19.30963513 33.86854998 26.6547699 50.94552612 C27.05575645 51.87741257 27.05575645 51.87741257 27.46484375 52.828125 C27.73599503 53.4583255 28.0071463 54.088526 28.28651428 54.73782349 C30.30769125 59.42356658 32.36070167 64.09472995 34.42478943 68.76171875 C36.01923459 72.36695539 37.60814303 75.97462295 39.19711304 79.58227539 C39.98003275 81.35546267 40.76568308 83.12744689 41.55410767 84.89819336 C42.65510404 87.37179111 43.7464788 89.84942871 44.8359375 92.328125 C45.17166275 93.07559998 45.507388 93.82307495 45.85328674 94.59320068 C46.62898094 96.37041896 47.32315775 98.18283439 48 100 C47.67 100.66 47.34 101.32 47 102 C32.58595558 93.95612008 18.2027628 85.86404674 3.88330078 77.65283203 C-1.70046613 74.45197665 -7.28750548 71.25684238 -12.875 68.0625 C-13.46338654 67.72607483 -14.05177307 67.38964966 -14.6579895 67.04302979 C-26.4157799 60.32146364 -38.20120622 53.64934951 -50 47 C-50 45.68 -50 44.36 -50 43 C-47.83669423 40.96091767 -45.74036801 39.21275061 -43.375 37.4375 C-42.69493896 36.9108374 -42.01487793 36.3841748 -41.31420898 35.84155273 C-39.90162434 34.74844036 -38.48514236 33.66034707 -37.06494141 32.57714844 C-34.04132564 30.26778951 -31.05241223 27.91521072 -28.0625 25.5625 C-27.50022705 25.12268799 -26.9379541 24.68287598 -26.35864258 24.22973633 C-21.04156239 20.06278079 -15.80651639 15.79666113 -10.59204102 11.50219727 C-6.50631043 8.15541448 -2.32849545 5.02715424 2 2 C1.34 1.34 0.68 0.68 0 0 Z " fill="#8B21FF" transform="translate(541,324)"/>
<path d="M0 0 C8.40257347 0.38721537 16.00548603 2.52946202 24 5 C26.22648353 5.68124773 28.45305366 6.36221248 30.6796875 7.04296875 C37.12337951 9.01709604 43.56280363 11.00480311 50 13 C45.70816261 17.60523728 40.87453623 21.21542878 35.8125 24.9375 C29.08845234 29.92914039 22.40934205 34.96626661 15.8125 40.125 C7.89567125 46.31203562 -0.07528316 52.42489852 -8.06298828 58.52001953 C-12.01999082 61.54338094 -15.96467076 64.58272853 -19.91015625 67.62109375 C-21.95847742 69.19811979 -24.00794455 70.77365859 -26.05859375 72.34765625 C-34.62386654 78.92398929 -43.14919536 85.55100784 -51.66943359 92.18554688 C-56.18419265 95.70049442 -60.70130967 99.21241088 -65.21801758 102.72485352 C-69.14355587 105.77776311 -73.06838746 108.83157526 -76.9921875 111.88671875 C-77.80945313 112.52287109 -78.62671875 113.15902344 -79.46875 113.81445312 C-81.03407652 115.03291752 -82.59919206 116.25165303 -84.1640625 117.47070312 C-84.87046875 118.02048828 -85.576875 118.57027344 -86.3046875 119.13671875 C-86.92327637 119.61842529 -87.54186523 120.10013184 -88.17919922 120.59643555 C-88.78006348 121.05961182 -89.38092773 121.52278809 -90 122 C-90.69496582 122.55405518 -91.38993164 123.10811035 -92.10595703 123.67895508 C-94 125 -94 125 -96 125 C-94.34812259 121.08269072 -91.69564058 118.1092443 -88.9375 114.9375 C-87.931578 113.76493478 -86.92637879 112.59174914 -85.921875 111.41796875 C-85.17454102 110.54664307 -85.17454102 110.54664307 -84.41210938 109.65771484 C-82.47233287 107.38055674 -80.57686244 105.06908585 -78.6875 102.75 C-70.149208 92.27188137 -61.57933116 81.82236346 -52.82592773 71.52294922 C-49.33583103 67.41143408 -45.91060741 63.25098691 -42.50390625 59.0703125 C-35.13313483 50.03220589 -27.73937925 41.01264984 -20.1875 32.125 C-11.5409899 21.9439291 -3.22056964 11.52540225 5 1 C3.02 1.33 1.04 1.66 -1 2 C-0.67 1.34 -0.34 0.68 0 0 Z " fill="#8400EF" transform="translate(97,299)"/>
<path d="M0 0 C0.38220703 0.71430176 0.76441406 1.42860352 1.15820312 2.16455078 C2.29522483 4.28774383 3.43387166 6.41006701 4.57373047 8.53173828 C5.86708784 10.94006745 7.15138287 13.35295197 8.43017578 15.76904297 C12.26813397 23.06561098 12.26813397 23.06561098 16.7109375 30 C24.01181734 40.54278677 22.79438456 51.60454551 22 64 C15.7887616 63.3280491 10.03549015 61.66898364 4.0625 59.875 C3.02504639 59.56876709 1.98759277 59.26253418 0.91870117 58.94702148 C-3.51762016 57.63704074 -7.95021941 56.31490385 -12.38085938 54.98583984 C-14.59045054 54.32341291 -16.80080298 53.6635192 -19.01196289 53.00634766 C-21.09108414 52.38838173 -23.16848119 51.7645776 -25.24389648 51.13427734 C-26.18821533 50.85406738 -27.13253418 50.57385742 -28.10546875 50.28515625 C-28.93199951 50.03644775 -29.75853027 49.78773926 -30.61010742 49.53149414 C-33.20555563 48.95428597 -35.35132594 48.73697214 -38 49 C-39.99667417 50.90289098 -41.57678499 52.65537677 -43.25 54.8125 C-43.72888672 55.40417969 -44.20777344 55.99585938 -44.70117188 56.60546875 C-45.68138966 57.81869979 -46.65537687 59.03699138 -47.62304688 60.26025391 C-49.55238439 62.69792397 -51.52699228 65.0976147 -53.5 67.5 C-54.221875 68.386875 -54.94375 69.27375 -55.6875 70.1875 C-58.7243277 73.8809391 -61.81960955 77.52298486 -64.91625977 81.16625977 C-67.7954532 84.55954109 -70.63204237 87.98267786 -73.4375 91.4375 C-76.89274609 95.68392946 -80.42710949 99.85284488 -84 104 C-91.88546132 113.15767062 -99.47356622 122.54581479 -107 132 C-107.33 131.34 -107.66 130.68 -108 130 C-106.86694336 127.58349609 -106.86694336 127.58349609 -105.08984375 124.5234375 C-104.43677246 123.3900293 -103.78370117 122.25662109 -103.11083984 121.08886719 C-102.38658035 119.85080197 -101.66212886 118.61284906 -100.9375 117.375 C-100.1993583 116.10097635 -99.46189786 114.82655775 -98.72509766 113.55175781 C-96.84771511 110.30817034 -94.96084641 107.070221 -93.07061768 103.83410645 C-91.47925065 101.10788907 -89.89423679 98.37798699 -88.30859375 95.6484375 C-86.59840389 92.70608211 -84.88453786 89.7662103 -83.15869141 86.83300781 C-80.17590863 81.76304039 -77.24978628 76.67082618 -74.40234375 71.5234375 C-68.33751894 60.65195141 -63.13755977 51.50211759 -53 44 C-51.63501662 42.82494937 -50.28009673 41.63806554 -48.9375 40.4375 C-48.30328125 39.88707031 -47.6690625 39.33664062 -47.015625 38.76953125 C-44.71392236 36.74885044 -42.45235621 34.68687382 -40.1875 32.625 C-36.81059018 29.57141133 -33.36782868 26.65570795 -29.8125 23.8125 C-24.40272113 19.44306322 -19.34431434 14.74658241 -14.30200195 9.96020508 C-3.78946976 0 -3.78946976 0 0 0 Z " fill="#8B22FF" transform="translate(778,467)"/>
<path d="M0 0 C0.99 0.495 0.99 0.495 2 1 C-4.39199422 17.67220611 -10.87764721 34.30560373 -17.49584961 50.8894043 C-18.20440752 52.66509681 -18.91209629 54.4411364 -19.61889648 56.2175293 C-20.61943279 58.73078402 -21.62359533 61.24255817 -22.62890625 63.75390625 C-22.92535538 64.49959366 -23.2218045 65.24528107 -23.52723694 66.01356506 C-25.17426632 70.11316981 -26.962587 74.07370723 -29 78 C-36.75862672 79.2235131 -43.83655342 79.91308482 -50.52734375 75.19921875 C-54.23248877 72.2388182 -57.70548189 69.03637674 -61.1328125 65.76074219 C-63.61186813 63.42301348 -66.21206387 61.31330981 -68.875 59.1875 C-69.72835937 58.49011719 -70.58171875 57.79273438 -71.4609375 57.07421875 C-72.29882812 56.38972656 -73.13671875 55.70523438 -74 55 C-75.83345036 53.50014304 -77.66678171 52.0001406 -79.5 50.5 C-80.87091797 49.37851562 -80.87091797 49.37851562 -82.26953125 48.234375 C-84.03822795 46.78702949 -85.80648543 45.33914699 -87.57421875 43.890625 C-93.81612976 38.77766949 -100.07443065 33.68530817 -106.3425293 28.60449219 C-110.25297675 25.43167184 -114.13881686 22.23261845 -118 19 C-114.42181779 17.74927896 -112.07294097 18.26364455 -108.45629883 19.24755859 C-107.34446732 19.54471771 -106.2326358 19.84187683 -105.08711243 20.14804077 C-103.29022224 20.64323715 -103.29022224 20.64323715 -101.45703125 21.1484375 C-99.5648074 21.65578955 -97.6725816 22.16313446 -95.78024578 22.67006874 C-93.12755385 23.38309698 -90.47721742 24.10466536 -87.8269043 24.82647705 C-83.21117656 26.08334122 -78.59398725 27.33465863 -73.97355652 28.5741272 C-71.51646412 29.23418155 -69.06105325 29.90053722 -66.60762024 30.57406616 C-56.33323004 33.95082936 -56.33323004 33.95082936 -46.06448364 33.13331604 C-44.22165913 31.96341938 -42.60190896 30.66189553 -40.9375 29.25 C-39.63349882 28.22013355 -38.32744119 27.19286658 -37.01953125 26.16796875 C-36.35646973 25.63864746 -35.6934082 25.10932617 -35.01025391 24.56396484 C-31.816948 22.07959302 -28.47729404 19.82510182 -25.125 17.5625 C-16.6789436 11.80844718 -8.33619103 5.91168002 0 0 Z " fill="#8000F3" transform="translate(315,722)"/>
<path d="M0 0 C-2.13204897 7.64298486 -4.82935109 14.97587055 -7.75390625 22.34765625 C-8.21425766 23.51719345 -8.67460907 24.68673065 -9.14891052 25.89170837 C-10.37017668 28.99194463 -11.59496699 32.09073988 -12.82147217 35.18890381 C-14.03332033 38.25291033 -15.23995103 41.31897049 -16.44726562 44.38476562 C-22.57986855 59.94384771 -28.77294979 75.47849838 -35 91 C-43.42868667 82.60494312 -51.40159925 73.89602259 -58.8515625 64.6171875 C-61.01511772 61.98158387 -63.2638956 59.45576625 -65.5625 56.9375 C-68.6338012 53.54119338 -71.67574168 50.12820597 -74.625 46.625 C-75.29789062 45.83351563 -75.97078125 45.04203125 -76.6640625 44.2265625 C-78 42 -78 42 -78.01269531 40.09570312 C-76.40285127 36.76424187 -73.33918621 35.75245272 -70.1328125 34.2421875 C-69.07997826 33.72528351 -69.07997826 33.72528351 -68.00587463 33.19793701 C-65.71815683 32.07769325 -63.42169752 30.97669816 -61.125 29.875 C-59.54971762 29.10633211 -57.97525484 28.33598232 -56.40161133 27.56396484 C-54.06437005 26.41733872 -51.72681729 25.27146223 -49.38673401 24.13064575 C-43.76854241 21.39073296 -38.20365905 18.56564017 -32.6875 15.625 C-31.97996582 15.24988281 -31.27243164 14.87476563 -30.54345703 14.48828125 C-27.43793713 12.83885281 -24.33724838 11.18045381 -21.23681641 9.52148438 C-18.32735207 7.96731849 -15.41385904 6.42090704 -12.5 4.875 C-11.59596436 4.38854004 -10.69192871 3.90208008 -9.76049805 3.40087891 C-8.92172119 2.95663574 -8.08294434 2.51239258 -7.21875 2.0546875 C-6.47560547 1.65749512 -5.73246094 1.26030273 -4.96679688 0.85107422 C-3 0 -3 0 0 0 Z " fill="#7D00F6" transform="translate(409,367)"/>
<path d="M0 0 C2.19411521 3.29117281 2.91403599 5.89469232 3.92016602 9.71411133 C4.10107285 10.39478165 4.28197968 11.07545197 4.46836853 11.77674866 C5.06921282 14.04372203 5.66173577 16.31277792 6.25390625 18.58203125 C6.67753308 20.19074297 7.10152606 21.79935831 7.52586365 23.40788269 C8.42134266 26.80752064 9.31280564 30.20817957 10.20141602 33.60961914 C11.30820017 37.84524835 12.42379137 42.07848983 13.54235268 46.3110218 C18.27884115 64.24693552 22.85154846 82.21604466 27.15234375 100.26171875 C27.44878879 101.49745605 27.44878879 101.49745605 27.75122261 102.75815773 C28.30541287 105.0741502 28.85305312 107.39157954 29.39819336 109.7097168 C29.56189108 110.39259703 29.7255888 111.07547726 29.89424706 111.77905083 C30.64009165 114.98933536 31 117.67317992 31 121 C22.0744399 118.88080277 13.2308062 116.55521722 4.4375 113.9375 C3.60573242 113.69241699 2.77396484 113.44733398 1.91699219 113.19482422 C-2.88290857 111.74749634 -7.4316107 110.0665063 -12 108 C-11.65086459 95.5882363 -10.27588946 83.34559629 -8.72802734 71.03466797 C-7.65216324 62.45672771 -6.63711798 53.87505186 -5.6953125 45.28125 C-5.58546021 44.27975418 -5.47560791 43.27825836 -5.36242676 42.24641418 C-4.92513153 38.24910426 -4.48936086 34.25164708 -4.05969238 30.25350952 C-1.88211704 9.99598852 -1.88211704 9.99598852 0 0 Z " fill="#9239FF" transform="translate(116,191)"/>
<path d="M0 0 C0.99 0.495 0.99 0.495 2 1 C-10.74217996 39.55635947 -23.8812764 77.92535037 -38 116 C-41 116 -41 116 -42.9453125 114.19921875 C-43.66460938 113.37035156 -44.38390625 112.54148437 -45.125 111.6875 C-46.31996094 110.31464844 -46.31996094 110.31464844 -47.5390625 108.9140625 C-50.63719771 105.245477 -53.70219265 101.55482575 -56.7109375 97.8125 C-58.3092979 95.84864422 -59.94264979 93.91298042 -61.6015625 92 C-62.43429687 91.030625 -63.26703125 90.06125 -64.125 89.0625 C-64.89070312 88.18722656 -65.65640625 87.31195313 -66.4453125 86.41015625 C-68 84 -68 84 -67.75683594 82.05029297 C-66.93591459 79.82639055 -66.02046575 78.54605106 -64.4453125 76.78515625 C-63.6550769 75.88966064 -63.6550769 75.88966064 -62.84887695 74.97607422 C-62.27999756 74.34459473 -61.71111816 73.71311523 -61.125 73.0625 C-59.9330129 71.71275232 -58.74161628 70.36248297 -57.55078125 69.01171875 C-56.65286865 67.99924072 -56.65286865 67.99924072 -55.73681641 66.96630859 C-53.23063725 64.12897842 -50.76262501 61.26079161 -48.3125 58.375 C-47.65060669 57.59745361 -47.65060669 57.59745361 -46.9753418 56.80419922 C-43.19758179 52.3237133 -39.63639349 47.68633797 -36.17114258 42.96044922 C-35.15931986 41.60532576 -34.08497304 40.29729654 -33 39 C-32.34 39 -31.68 39 -31 39 C-30.72615479 38.40775635 -30.45230957 37.8155127 -30.17016602 37.20532227 C-29.04182286 35.07882035 -27.86920306 33.50894637 -26.27734375 31.71484375 C-25.74318848 31.10721191 -25.2090332 30.49958008 -24.65869141 29.87353516 C-24.09069824 29.23464355 -23.52270508 28.59575195 -22.9375 27.9375 C-21.75537614 26.5908386 -20.57439225 25.24317567 -19.39453125 23.89453125 C-18.81525879 23.23275879 -18.23598633 22.57098633 -17.63916016 21.88916016 C-11.49624861 14.80934938 -5.70753604 7.4326434 0 0 Z " fill="#9239FF" transform="translate(599,1)"/>
<path d="M0 0 C3.76275059 3.66697149 7.22882748 7.49338048 10.625 11.5 C11.14425049 12.10948486 11.66350098 12.71896973 12.19848633 13.34692383 C13.8011111 15.22949154 15.4006174 17.11467767 17 19 C17.96993343 20.13942393 18.93998119 21.27875055 19.91015625 22.41796875 C24.92982258 28.32165653 29.88822464 34.26926692 34.7734375 40.28515625 C36.26115257 42.09912463 37.76658104 43.89870507 39.2890625 45.68359375 C44.98178985 52.3683762 50.23137783 59.28668767 55.4050293 66.37695312 C59.86063356 72.47780463 64.40556036 78.50313467 69 84.5 C74.71548749 91.96606594 80.34124942 99.48992989 85.89111328 107.07983398 C90.5146598 113.38764384 95.26018921 119.59618052 100.09057617 125.74707031 C100.86171753 126.7404541 100.86171753 126.7404541 101.6484375 127.75390625 C102.10395996 128.33470947 102.55948242 128.9155127 103.02880859 129.51391602 C104 131 104 131 104 133 C100.70968981 133.42550746 98.09937329 133.69703924 95.20947266 131.86474609 C93.32609547 130.20911638 91.56427744 128.48183449 89.8125 126.6875 C88.4888475 125.39134857 87.16462206 124.09578199 85.83984375 122.80078125 C85.18999512 122.15447754 84.54014648 121.50817383 83.87060547 120.84228516 C81.26831348 118.27939096 78.58044486 115.82894269 75.875 113.375 C72.87861121 110.63464443 69.8823185 107.89426262 66.89453125 105.14453125 C66.36891602 104.66137451 65.84330078 104.17821777 65.30175781 103.68041992 C64.21665184 102.67687742 63.13662964 101.66781254 62.06152344 100.65356445 C59.25280538 98.01385117 56.4166677 95.51262606 53.37109375 93.1484375 C41.13696292 83.28995943 35.27982925 70.28561554 28.65136719 56.41943359 C26.48177253 51.92692284 24.16665798 47.52272456 21.8125 43.125 C21.03278524 41.65160684 20.25414548 40.17764431 19.4765625 38.703125 C19.0837207 37.95869141 18.69087891 37.21425781 18.28613281 36.44726562 C16.81647974 33.65079593 15.35672652 30.8492873 13.8984375 28.046875 C13.36500732 27.02190918 12.83157715 25.99694336 12.28198242 24.94091797 C11.25245718 22.96131639 10.22390377 20.98120895 9.1965332 19.00048828 C6.52627736 13.86716336 3.78996392 8.79165729 0.89379883 3.78173828 C0 2 0 2 0 0 Z " fill="#C090FF" transform="translate(96,667)"/>
<path d="M0 0 C0.33 0 0.66 0 1 0 C1 46.2 1 92.4 1 140 C-17.57142857 130.71428571 -17.57142857 130.71428571 -25 126 C-24.28976174 118.17046868 -22.82092221 110.57344893 -21.25 102.875 C-20.97762776 101.52623581 -20.70541324 100.17743976 -20.43334961 98.82861328 C-18.69772795 90.25796015 -16.85788139 81.7129296 -14.96362305 73.17602539 C-12.8390565 63.48201063 -10.98849628 53.73670051 -9.11669922 43.99151611 C-6.28781925 29.28002057 -3.21828965 14.63151341 0 0 Z " fill="#8A21FF" transform="translate(799,542)"/>
<path d="M0 0 C-2.7168171 2.84830109 -5.47684995 5.17075242 -8.71875 7.3984375 C-9.64220215 8.03644287 -10.5656543 8.67444824 -11.51708984 9.33178711 C-12.5014502 10.00604736 -13.48581055 10.68030762 -14.5 11.375 C-16.56529523 12.80050447 -18.6303954 14.22629158 -20.6953125 15.65234375 C-21.74106445 16.37276855 -22.78681641 17.09319336 -23.86425781 17.83544922 C-28.71463233 21.18358223 -33.54609527 24.55850668 -38.375 27.9375 C-39.23029297 28.5341748 -40.08558594 29.13084961 -40.96679688 29.74560547 C-41.74861328 30.2923291 -42.53042969 30.83905273 -43.3359375 31.40234375 C-44.02220215 31.88179443 -44.7084668 32.36124512 -45.41552734 32.85522461 C-46.96068408 33.90766584 -46.96068408 33.90766584 -48 35 C-55.66718558 34.52637663 -62.83830529 32.66009626 -70.2421875 30.69140625 C-71.48751251 30.36462387 -72.73283752 30.03784149 -74.01589966 29.70115662 C-76.63409888 29.01345306 -79.25105872 28.32126946 -81.8671875 27.62573242 C-85.21739341 26.73537206 -88.57035476 25.85593839 -91.92428398 24.97972202 C-95.13590417 24.13922067 -98.34519032 23.28997898 -101.5546875 22.44140625 C-103.35931961 21.96943565 -103.35931961 21.96943565 -105.20040894 21.4879303 C-106.8682695 21.04253151 -106.8682695 21.04253151 -108.56982422 20.58813477 C-109.54861542 20.3291188 -110.52740662 20.07010284 -111.53585815 19.80323792 C-114 19 -114 19 -117 17 C-108.00087216 15.06053279 -99.09863315 13.53119799 -89.94921875 12.52734375 C-86.0916892 12.01224336 -82.3378225 11.28205766 -78.52905273 10.49731445 C-74.60162641 9.72502297 -70.65177279 9.17064763 -66.6875 8.625 C-65.80795654 8.50125 -64.92841309 8.3775 -64.0222168 8.25 C-58.6235572 7.49326956 -53.22211209 6.75736986 -47.8203125 6.0234375 C-45.31768044 5.68249638 -42.81507649 5.34134884 -40.3125 5 C-39.07371094 4.83161621 -37.83492188 4.66323242 -36.55859375 4.48974609 C-28.88645654 3.43492914 -21.24031798 2.29275799 -13.62817383 0.86328125 C-9.00135913 0.02938882 -4.68052603 -0.10389625 0 0 Z " fill="#9238FF" transform="translate(315,722)"/>
<path d="M0 0 C11.15685621 4.64664816 22.31330446 9.29425668 33.46533203 13.95248413 C37.6028582 15.68062536 41.74086295 17.40761896 45.87890625 19.13452148 C47.98848524 20.01521791 50.09785485 20.89641603 52.20703125 21.77807617 C55.32496184 23.08125885 58.44365552 24.38260004 61.5625 25.68359375 C62.96254272 26.26952553 62.96254272 26.26952553 64.39086914 26.86729431 C66.92296815 27.92240777 69.45920912 28.96600909 72 30 C72.75394043 30.30825714 73.50788086 30.61651428 74.28466797 30.93411255 C77.78366498 32.314863 80.18486194 33 84 33 C84.33 33.99 84.66 34.98 85 36 C83.046875 35.93489583 81.09375 35.86979167 79.140625 35.8046875 C76.99020553 35.8586549 76.99020553 35.8586549 75.28125 36.93334961 C72.33958007 38.30879438 69.56449279 38.73324297 66.359375 39.26171875 C65.36458633 39.42893684 65.36458633 39.42893684 64.34970093 39.59953308 C62.15073103 39.96803403 59.95041392 40.32773111 57.75 40.6875 C55.41074964 41.07676213 53.07188617 41.46828891 50.73306274 41.86010742 C49.08602204 42.13602299 47.43886355 42.41123627 45.79159546 42.68579102 C39.50791898 43.73624336 33.23326192 44.83312532 26.9609375 45.94921875 C26.05347778 46.11026596 25.14601807 46.27131317 24.21105957 46.4372406 C20.63271861 47.07251271 17.05443867 47.70801258 13.47741699 48.35067749 C10.9882102 48.79749357 8.49812259 49.23906867 6.0078125 49.6796875 C5.2696933 49.81376511 4.5315741 49.94784271 3.77108765 50.08598328 C0.13867785 50.72413947 -3.31007507 51.15228262 -7 51 C-6.67 50.01 -6.34 49.02 -6 48 C-5.34 48 -4.68 48 -4 48 C-2.42458708 46.59797572 -0.91152007 45.12558994 0.5703125 43.625 C1.46621094 42.72265625 2.36210937 41.8203125 3.28515625 40.890625 C4.23187899 39.9271896 5.17849216 38.96364652 6.125 38 C7.07896802 37.03600383 8.03338952 36.07245619 8.98828125 35.109375 C11.33003175 32.74397045 13.66700503 30.37403548 16 28 C13.34124016 22.42897067 10.39116598 17.37807443 6.875 12.3125 C5.99293883 11.04084039 5.11520924 9.76616353 4.2421875 8.48828125 C3.8591748 7.93696533 3.47616211 7.38564941 3.08154297 6.81762695 C1.78172548 4.6331707 0.92385933 2.36453015 0 0 Z " fill="#8400F0" transform="translate(20,264)"/>
<path d="M0 0 C0 4.27811205 -2.49265838 6.36657189 -5.125 9.5 C-9.97921296 15.41310123 -14.61477875 21.44563201 -19.125 27.625 C-29.56250413 41.89276782 -40.46717931 55.69413773 -51.91601562 69.16625977 C-54.79553755 72.55933659 -57.63200817 75.98263573 -60.4375 79.4375 C-64.39443418 84.30049424 -68.46435942 89.05700203 -72.55615234 93.80615234 C-76.34925214 98.21754794 -80.04876607 102.69711826 -83.71484375 107.21484375 C-86.31482361 110.3837081 -88.96668103 113.50511087 -91.625 116.625 C-95.89549998 121.64161373 -100.02233219 126.74622033 -104 132 C-104.33 131.34 -104.66 130.68 -105 130 C-103.86694336 127.58349609 -103.86694336 127.58349609 -102.08984375 124.5234375 C-101.43677246 123.3900293 -100.78370117 122.25662109 -100.11083984 121.08886719 C-99.38658035 119.85080197 -98.66212886 118.61284906 -97.9375 117.375 C-97.1993583 116.10097635 -96.46189786 114.82655775 -95.72509766 113.55175781 C-93.84771511 110.30817034 -91.96084641 107.070221 -90.07061768 103.83410645 C-88.47925065 101.10788907 -86.89423679 98.37798699 -85.30859375 95.6484375 C-83.59840389 92.70608211 -81.88453786 89.7662103 -80.15869141 86.83300781 C-77.17590863 81.76304039 -74.24978628 76.67082618 -71.40234375 71.5234375 C-65.33751894 60.65195141 -60.13755977 51.50211759 -50 44 C-48.63501662 42.82494937 -47.28009673 41.63806554 -45.9375 40.4375 C-45.30328125 39.88707031 -44.6690625 39.33664062 -44.015625 38.76953125 C-41.71392236 36.74885044 -39.45235621 34.68687382 -37.1875 32.625 C-33.81059018 29.57141133 -30.36782868 26.65570795 -26.8125 23.8125 C-21.40272113 19.44306322 -16.34431434 14.74658241 -11.30200195 9.96020508 C-7.64066577 6.49123503 -3.91075441 3.18609701 0 0 Z " fill="#C08FFF" transform="translate(775,467)"/>
<path d="M0 0 C2.08505333 2.63025166 3.63959495 5.11640217 4.96118164 8.19848633 C5.3148732 9.01646194 5.66856476 9.83443756 6.03297424 10.67720032 C6.40494431 11.55329453 6.77691437 12.42938873 7.16015625 13.33203125 C7.55069687 14.24200363 7.94123749 15.15197601 8.34361267 16.08952332 C9.16733276 18.01241539 9.98836294 19.93646169 10.80688477 21.86157227 C12.05477069 24.7943347 13.31284129 27.72256759 14.57226562 30.65039062 C15.37301012 32.52317497 16.17315987 34.39621374 16.97265625 36.26953125 C17.34665054 37.13955276 17.72064484 38.00957428 18.10597229 38.90596008 C20.07528438 43.55443053 21.73497247 48.1111742 23 53 C3.93405104 49.28839108 -15.0377525 45.20350773 -34 41 C-34 37.42066846 -33.46894437 37.04917452 -31.125 34.5 C-30.48820312 33.79875 -29.85140625 33.0975 -29.1953125 32.375 C-28.47085937 31.59125 -27.74640625 30.8075 -27 30 C-25.332538 28.16739001 -23.6659058 26.33402474 -22 24.5 C-21.14535156 23.56285156 -20.29070312 22.62570312 -19.41015625 21.66015625 C-16.83813563 18.82134581 -14.31382286 15.945585 -11.80078125 13.0546875 C-2.90769231 2.90769231 -2.90769231 2.90769231 0 0 Z " fill="#8400F0" transform="translate(353,681)"/>
<path d="M0 0 C1.75947042 2.63920563 2.84434332 4.86586324 4.00854492 7.78637695 C4.59711273 9.2556665 4.59711273 9.2556665 5.1975708 10.75463867 C5.62092712 11.82174072 6.04428345 12.88884277 6.48046875 13.98828125 C6.92598083 15.10332031 7.37149292 16.21835937 7.83050537 17.3671875 C9.03695008 20.38912435 10.24027495 23.41227741 11.44175339 26.43619156 C12.43451642 28.93399661 13.42910301 31.43107381 14.42366123 33.92816448 C16.17561749 38.32693048 17.92673951 42.72602551 19.6749115 47.126297 C22.33801703 53.82911521 25.0102831 60.52810058 27.6993866 67.22053528 C29.12379101 70.76749924 30.54222977 74.31682619 31.95913696 77.86679077 C32.61019552 79.49430517 33.2638133 81.12079817 33.92001343 82.74624634 C34.81709002 84.96998752 35.70468307 87.19727585 36.58984375 89.42578125 C36.85327576 90.07208496 37.11670776 90.71838867 37.38812256 91.38427734 C37.98473363 92.90083564 38.50098463 94.44858855 39 96 C38.67 96.66 38.34 97.32 38 98 C37.5875 97.61255615 37.175 97.2251123 36.75 96.82592773 C26.94967183 87.59060974 26.94967183 87.59060974 16.890625 78.640625 C13.74651501 75.91226509 10.67348015 73.10490296 7.58984375 70.30859375 C5.18574467 68.08518922 5.18574467 68.08518922 3.15087891 66.66845703 C-0.38323496 64.01854283 -1.83308747 62.84181974 -2.71875 58.375 C-2.68201849 56.91530697 -2.60577571 55.4563188 -2.5 54 C-2.45540649 52.77410156 -2.45540649 52.77410156 -2.40991211 51.5234375 C-2.33835171 49.56457929 -2.2522334 47.60622697 -2.15576172 45.6484375 C-1.96689204 41.22450576 -1.87317202 36.80190266 -1.78515625 32.375 C-1.64255421 25.58298349 -1.4994243 18.7910637 -1.31640625 12 C-1.29965347 11.25282715 -1.2829007 10.5056543 -1.26564026 9.73583984 C-1.16942035 6.36860546 -1.03201601 3.22354161 0 0 Z " fill="#9238FF" transform="translate(734,569)"/>
<path d="M0 0 C0.66 0 1.32 0 2 0 C3.22338867 1.65917969 3.22338867 1.65917969 4.73046875 4.171875 C8.24773591 9.85844193 11.9304607 15.41420232 15.67578125 20.953125 C16.28936493 21.86179321 16.90294861 22.77046143 17.53512573 23.70666504 C19.45969413 26.55527227 21.38599035 29.40270537 23.3125 32.25 C25.8509308 36.00475553 28.38853036 39.76007208 30.92578125 43.515625 C31.53390656 44.41551147 32.14203186 45.31539795 32.76858521 46.24255371 C37.87748847 53.80730905 42.95032311 61.39560711 48 69 C47.67 69.66 47.34 70.32 47 71 C40.92131812 66.08743261 34.92001088 61.10183106 29 56 C24.80831772 52.3898162 20.59609655 48.81392771 16.3125 45.3125 C15.49885986 44.63179443 14.68521973 43.95108887 13.84692383 43.24975586 C11.06631365 40.96663013 11.06631365 40.96663013 8.09912109 39.19238281 C3.44520128 36.08767147 0.44342294 33.86266928 -0.88696289 28.27416992 C-1.21472156 23.97889079 -0.96366502 19.72871606 -0.6875 15.4375 C-0.63222719 13.93702957 -0.58205375 12.43636218 -0.53710938 10.93554688 C-0.41682793 7.28622068 -0.22763509 3.64439009 0 0 Z " fill="#9237FF" transform="translate(479,9)"/>
<path d="M0 0 C0.59578354 0.24827042 1.19156708 0.49654083 1.80540466 0.75233459 C12.36689878 5.15337101 22.92851064 9.5541234 33.49111938 13.95248413 C37.63877486 15.67963151 41.78631114 17.40706501 45.93383789 19.13452148 C48.04999806 20.0158283 50.16621044 20.89700974 52.2824707 21.77807617 C55.40850538 23.07958069 58.53434899 24.38154315 61.66015625 25.68359375 C62.59867935 26.07421494 63.53720245 26.46483612 64.50416565 26.86729431 C69.34768812 28.88539415 74.18151425 30.92280352 79 33 C79 33.33 79 33.66 79 34 C71.99620747 34.1483028 65.27120302 33.58276744 58.32421875 32.72265625 C57.23663773 32.59185165 56.1490567 32.46104706 55.02851868 32.32627869 C52.74486164 32.05052999 50.46151323 31.77221441 48.1784668 31.49145508 C44.68153897 31.06176753 41.18366311 30.64059473 37.68554688 30.22070312 C35.46087718 29.95101799 33.23626564 29.68085254 31.01171875 29.41015625 C29.96690842 29.28407486 28.92209808 29.15799347 27.84562683 29.02809143 C26.87394058 28.90804245 25.90225433 28.78799347 24.90112305 28.66430664 C24.04890671 28.5599379 23.19669037 28.45556915 22.31864929 28.34803772 C16.40889236 27.46096164 16.40889236 27.46096164 14.72314453 25.56054688 C14.36333496 24.95275391 14.00352539 24.34496094 13.6328125 23.71875 C13.22466309 23.04537598 12.81651367 22.37200195 12.39599609 21.67822266 C11.97656738 20.95940918 11.55713867 20.2405957 11.125 19.5 C10.24594327 18.03836928 9.36573997 16.57742751 8.484375 15.1171875 C8.06091797 14.40916992 7.63746094 13.70115234 7.20117188 12.97167969 C5.24601302 9.76235796 3.11286138 6.6808348 0.9609375 3.6015625 C0 2 0 2 0 0 Z " fill="#9238FF" transform="translate(20,264)"/>
<path d="M0 0 C2.09614636 3.14421953 2.82706603 5.51964274 3.8034668 9.15209961 C4.31861092 11.05438576 4.31861092 11.05438576 4.84416199 12.99510193 C5.21292068 14.3807411 5.58126289 15.76649117 5.94921875 17.15234375 C6.32968714 18.57342638 6.71037156 19.99445118 7.09126282 21.41542053 C7.88775274 24.39270023 8.67975708 27.37113167 9.46899414 30.3503418 C10.48088264 34.16750501 11.50665459 37.98078147 12.53618145 41.79321957 C13.32606565 44.72625687 14.10711309 47.6615933 14.88566017 50.59765816 C15.26018513 52.0046793 15.63779063 53.41088421 16.01852989 54.8162365 C16.54976542 56.78120255 17.06754898 58.74979048 17.5847168 60.71850586 C17.88290817 61.83752792 18.18109955 62.95654999 18.48832703 64.10948181 C18.97960268 66.88477247 18.95594231 68.38877659 18 71 C17.44054687 70.53851563 16.88109375 70.07703125 16.3046875 69.6015625 C15.50289062 68.94929688 14.70109375 68.29703125 13.875 67.625 C12.97910156 66.88894531 12.08320313 66.15289062 11.16015625 65.39453125 C8.84256319 63.63843169 6.66909315 62.16292245 4.18359375 60.69921875 C3.54244629 60.30202637 2.90129883 59.90483398 2.24072266 59.49560547 C0.97899258 58.72144189 -0.30695076 57.98512757 -1.61572266 57.29345703 C-3.66013065 56.00323098 -4.76849433 55.09336376 -6 53 C-6.35090318 48.57877778 -5.65057472 44.37077933 -5 40 C-4.76244868 37.67675132 -4.53458714 35.35249152 -4.31640625 33.02734375 C-4.06713633 30.66384729 -3.81582476 28.30056529 -3.5625 25.9375 C-3.44068359 24.76123047 -3.31886719 23.58496094 -3.19335938 22.37304688 C-2.39196262 14.86150944 -1.33239812 7.43575082 0 0 Z " fill="#C08EFF" transform="translate(116,191)"/>
<path d="M0 0 C0.66 0.33 1.32 0.66 2 1 C-0.14822518 7.47047461 -2.29901427 13.94009322 -4.45141602 20.40917969 C-5.18016784 22.6003992 -5.90837676 24.79179936 -6.63598633 26.98339844 C-11.30110854 41.03349736 -16.05923295 55.04431153 -21 69 C-24.75266646 65.24733354 -25.90827141 59.60719081 -27.6875 54.6875 C-28.11611328 53.54603516 -28.54472656 52.40457031 -28.98632812 51.22851562 C-29.58670898 49.57432617 -29.58670898 49.57432617 -30.19921875 47.88671875 C-30.56877686 46.87826904 -30.93833496 45.86981934 -31.3190918 44.83081055 C-32.0625988 41.73975147 -31.9663873 40.00693027 -31 37 C-29.03125 34.4921875 -29.03125 34.4921875 -26.5 31.875 C-25.57976017 30.9031872 -24.66184134 29.92917204 -23.74609375 28.953125 C-23.28315918 28.46134766 -22.82022461 27.96957031 -22.34326172 27.46289062 C-19.53789073 24.40767744 -16.98184036 21.14486202 -14.37890625 17.91796875 C-11.16175614 13.97180926 -7.85811598 10.10131104 -4.54125977 6.23876953 C-2.00556186 3.3020798 -2.00556186 3.3020798 0 0 Z " fill="#C08FFF" transform="translate(599,1)"/>
<path d="M0 0 C-0.61488281 0.67546875 -1.22976562 1.3509375 -1.86328125 2.046875 C-2.67152344 2.93890625 -3.47976562 3.8309375 -4.3125 4.75 C-5.51326172 6.07257812 -5.51326172 6.07257812 -6.73828125 7.421875 C-8.96449934 9.8316732 -8.96449934 9.8316732 -10.34928894 12.0955658 C-12.42734945 14.49303535 -13.56229471 14.65163546 -16.6730957 15.04907227 C-17.62291824 15.17923233 -18.57274078 15.3093924 -19.55134583 15.4434967 C-20.58240952 15.56655685 -21.61347321 15.689617 -22.67578125 15.81640625 C-24.28914619 16.03030251 -24.28914619 16.03030251 -25.93510437 16.2485199 C-29.39231684 16.7030835 -32.85206506 17.13322963 -36.3125 17.5625 C-38.56987292 17.85448962 -40.82703771 18.1480931 -43.08398438 18.44335938 C-47.54378604 19.02526959 -52.00492682 19.59479771 -56.46728516 20.15673828 C-60.79580479 20.70665104 -65.11656877 21.29371609 -69.43505859 21.91748047 C-70.44529587 22.06209213 -71.45553314 22.2067038 -72.49638367 22.35569763 C-74.39316426 22.62944293 -76.28908301 22.90925387 -78.18391418 23.19618225 C-79.44675484 23.37738869 -79.44675484 23.37738869 -80.73510742 23.56225586 C-81.46598068 23.67129745 -82.19685394 23.78033905 -82.94987488 23.89268494 C-85.16996944 24.00889715 -86.88270989 23.64413496 -89 23 C-79.41131682 20.31330741 -69.8225185 17.62702619 -60.23357677 14.94125652 C-55.78009251 13.69386511 -51.32664662 12.44633701 -46.87329102 11.19848633 C-42.56805338 9.99214459 -38.2627116 8.78617523 -33.95730019 7.58045387 C-32.32240468 7.12253638 -30.68754547 6.66448927 -29.05272484 6.20630455 C-28.27012102 5.98697573 -27.4875172 5.7676469 -26.68119812 5.54167175 C-25.91951985 5.32818494 -25.15784159 5.11469812 -24.37308216 4.89474201 C-22.21036288 4.28979766 -20.04668714 3.68837582 -17.88290405 3.08724976 C-15.44116883 2.40778816 -13.00851977 1.70896418 -10.57632446 0.99502563 C-9.59247772 0.7102536 -8.60863098 0.42548157 -7.5949707 0.13208008 C-6.35237236 -0.23683601 -6.35237236 -0.23683601 -5.08467102 -0.61320496 C-3 -1 -3 -1 0 0 Z " fill="#9239FF" transform="translate(186,641)"/>
<path d="M0 0 C2.63091092 3.29861379 4.62828598 6.79033884 6.65234375 10.48828125 C6.99374893 11.10970505 7.33515411 11.73112885 7.68690491 12.37138367 C8.77333226 14.35018419 9.85556334 16.33124118 10.9375 18.3125 C12.01672074 20.28256753 13.09681469 22.25215286 14.17738342 24.22148132 C15.16134497 26.01572669 16.14311375 27.81117406 17.12475586 29.60668945 C18.09280292 31.35839967 19.06640822 33.10845326 20.11154175 34.81529236 C22.2046238 38.26245022 23.50255978 40.78220788 23.390625 44.83984375 C23.37128906 46.0918457 23.37128906 46.0918457 23.3515625 47.36914062 C23.31804688 48.21669922 23.28453125 49.06425781 23.25 49.9375 C23.23195313 50.81212891 23.21390625 51.68675781 23.1953125 52.58789062 C23.14858353 54.72574108 23.07685441 56.86302045 23 59 C20.87283757 56.87283757 20.30966168 55.56522947 19.27587891 52.78491211 C18.94858795 51.91317856 18.621297 51.04144501 18.28408813 50.14329529 C17.93510468 49.19753128 17.58612122 48.25176727 17.2265625 47.27734375 C16.86154633 46.30269669 16.49653015 45.32804962 16.12045288 44.3238678 C14.95013889 41.19697851 13.7871059 38.06744816 12.625 34.9375 C11.46912664 31.8328994 10.31164014 28.72892468 9.15097046 25.62611389 C8.42890757 23.69497467 7.70968611 21.76276977 6.99380493 19.82933044 C5.09634004 14.74547066 3.06308781 9.78944449 0.73300171 4.88722229 C0 3 0 3 0 0 Z " fill="#9239FF" transform="translate(777,467)"/>
<path d="M0 0 C5.74504249 5.30311615 5.74504249 5.30311615 6 9 C5.67 9.66 5.34 10.32 5 11 C4.16151196 9.54462432 3.32936066 8.08559627 2.5 6.625 C1.80390625 5.40683594 1.80390625 5.40683594 1.09375 4.1640625 C0 2 0 2 0 0 Z " fill="#BB83FF" transform="translate(96,667)"/>
<path d="M0 0 C0.66 0.33 1.32 0.66 2 1 C1.3125 3.375 1.3125 3.375 0 6 C-2.625 7.3125 -2.625 7.3125 -5 8 C-3.62845496 5.04590299 -2.01136276 2.55991624 0 0 Z " fill="#B87BFF" transform="translate(599,1)"/>
</svg>
