<?xml version="1.0" encoding="UTF-8"?><svg xmlns="http://www.w3.org/2000/svg" viewBox="0 0 339.78 391.01"><defs><style>.d{fill:#009cff;}</style></defs><g id="a"/><g id="b"><g id="c"><path class="d" d="M169.04,0c.59,1.86,1.66,3.71,1.68,5.57,.15,12.98,.08,25.95,.08,38.93,0,1.37,0,2.73,0,4.02,8.27,.87,16.14,1.39,23.91,2.56,38.02,5.76,70.42,22.68,97.08,50.24,27.47,28.4,43.44,62.5,47.15,101.82,4.19,44.37-7.17,84.71-34.21,120.3-22.31,29.36-51.23,49.68-86.56,60.07-45.1,13.26-88.77,8.98-130.36-13.34-27.18-14.58-48.69-35.28-64.85-61.48C11.49,290.12,3.81,270.02,.38,248.41c-1.97-12.39,3.88-22.78,14.6-26.7,10.73-3.92,22.7-.29,28.16,9.62,2.74,4.97,3.8,10.96,5.17,16.6,7.81,32.26,25.57,57.58,53.19,75.82,22.94,15.15,48.41,21.59,75.75,19.72,31.35-2.15,58.1-14.83,80.1-37.21,17.87-18.18,29.16-39.97,33.49-65.09,4.58-26.61,.86-52.23-11.29-76.38-12.84-25.51-32.44-44.27-58.12-56.79-13.75-6.71-36.73-12.14-50.64-11.45,0,1.32,0,2.66,0,4.01,0,13.1,.06,26.21-.07,39.31-.02,1.59-.67,4.14-1.68,4.52-1.38,.52-3.73-.15-5.06-1.12-30.51-22.27-60.94-44.64-91.38-67.01-4.03-2.96-3.98-4.43,.15-7.47C103.3,46.36,133.85,23.94,164.39,1.5c.58-.43,1.07-.99,1.6-1.5,1.02,0,2.04,0,3.05,0Z"/></g></g></svg>