<?xml version="1.0" encoding="UTF-8"?><svg xmlns="http://www.w3.org/2000/svg" viewBox="0 0 226.59 191.14"><defs><style>.d{fill:#6842ff;}</style></defs><g id="a"/><g id="b"><g id="c"><path class="d" d="M0,129.24v-38.95c1.55-3.77,4.38-5.15,8.39-5,5.38,.2,10.76,.07,16.15,.04,.63,0,1.43-.03,1.85-.39,5.08-4.35,10.74-7.73,17-10.22-21.05-18.5-17.66-46.9-3.36-61.64,14.95-15.41,38.66-17.55,55.92-4.63,8.35,6.25,13.76,14.54,15.91,24.73,2.98,14.11-.67,26.62-10.17,37.73h30.16c-18.28-21.01-11.66-48.39,4.51-61.46,16.73-13.52,41.11-12.46,56.39,2.75,7.63,7.59,11.94,16.82,12.45,27.54,.74,15.21-5.44,27.4-17.14,36.58,4.12,2.94,8.1,5.82,12.13,8.62,.48,.33,1.23,.38,1.86,.39,5.38,.03,10.77,.16,16.15-.04,4.01-.15,6.84,1.24,8.39,5v38.95c-1.32,3.07-3.55,4.93-7.1,5.05v2.59c0,15.49,0,30.98,0,46.47,0,5.12-2.63,7.78-7.73,7.78-65.64,0-131.29,0-196.93,0-5.11,0-7.73-2.65-7.74-7.78,0-15.49,0-30.98,0-46.47,0-.87,0-1.73,0-2.69-3.71,0-5.76-2.01-7.1-4.96Zm35.47,48.35c0-.92,0-1.72,0-2.52,0-8.55-.03-17.1,.01-25.66,.03-5.31,4.72-8.67,9.29-6.68,3,1.31,4.11,3.8,4.1,6.95-.02,8.4,0,16.81,0,25.21,0,.86,0,1.72,0,2.68h57.8c0-.96,0-1.76,0-2.57,0-16-.03-32,.01-47.99,.03-12.09,3.7-23.04,10.89-32.74,2.51-3.39,5.5-6.42,8.44-9.8-.66,0-1.21,0-1.77,0-20.2,0-40.4-.07-60.6,.07-3.79,.03-7.63,.62-11.34,1.43-4.21,.92-8.16,2.67-11.79,5.25,7.59,7.48,10.46,16.27,7.01,26.17-4.36,12.52-14.08,17.45-27.03,16.78v43.42h14.98ZM186.03,91.25c-7.59-5.6-20.8-8.16-30.83-6.08-21.2,4.39-35.25,21.65-35.27,43.35-.01,15.56,0,31.12,0,46.68v2.34h57.8c0-1.01,0-1.81,0-2.61,0-8.26-.02-16.52,.02-24.78,0-1.23,.11-2.53,.51-3.68,1-2.87,4.2-4.72,7-4.24,3.46,.58,5.83,3.3,5.85,6.98,.05,8.63,.02,17.26,.02,25.89,0,.8,0,1.59,0,2.5h14.97v-43.41c-12.63,.61-22.27-4.03-26.8-16.21-3.77-10.14-.92-19.08,6.74-26.72Zm-115.43-20.18c15.8,.07,28.89-12.93,28.95-28.77,.07-15.77-12.97-28.92-28.77-29.01-15.89-.09-29.06,13.02-29.04,28.93,.02,15.88,12.92,28.78,28.85,28.85Zm92.42,0c15.88,.03,28.85-12.86,28.95-28.77,.11-15.75-12.95-28.92-28.75-29.01-15.87-.09-29.08,13.05-29.07,28.92,.01,15.83,13.01,28.83,28.87,28.86ZM13.35,120.85c3.91,0,7.59,.05,11.26-.01,5.45-.09,10.18-4.31,10.8-9.55,.67-5.73-2.63-11.21-8.23-12.09-4.49-.7-9.17-.14-13.83-.14v21.79Zm199.89-22.17c-4,0-7.75-.06-11.51,.02-5.29,.11-9.98,4.41-10.55,9.55-.63,5.65,2.65,11.12,8.04,12.05,4.56,.79,9.31,.53,14.01,.74v-22.36Z"/></g></g></svg>