<?xml version="1.0" encoding="UTF-8"?><svg xmlns="http://www.w3.org/2000/svg" viewBox="0 0 256.37 168.44"><defs><style>.d{fill:#6842ff;}</style></defs><g id="a"/><g id="b"><g id="c"><g><path class="d" d="M256.37,131.36c-.5,3.7-.78,7.44-1.57,11.08-.81,3.72-1.77,7.49-3.28,10.96-5.27,12.13-15.04,16.96-27.97,14.26-8.5-1.77-16-5.76-22.91-10.75-7.22-5.22-14.5-10.51-20.93-16.63-9.82-9.34-21.25-14.77-34.45-16.81-16.04-2.49-31.89-1.88-47.4,3.37-6.31,2.14-11.99,5.36-16.95,9.84-9.3,8.39-18.77,16.57-29.54,23.07-6.15,3.71-12.5,6.97-19.7,8.22-12.43,2.17-22.34-3.24-27.25-15.05-2.39-5.75-3.47-11.79-3.95-17.98-1.93-24.7,2.25-48.68,8.78-72.33,4.21-15.26,10.07-29.83,19.77-42.57C36.29,10.5,45.13,3.2,57.34,.94c7.86-1.45,15.63-.7,23.33,1,10.81,2.37,21.64,4.67,32.36,7.41,11.59,2.96,22.93,1.89,34.33-.88,10.75-2.61,21.51-5.26,32.36-7.39,19.6-3.84,35.34,2.56,47.42,18.47,10.28,13.54,15.99,29.11,20.54,45.2,4.36,15.43,7.21,31.14,8.2,47.17,.05,.81,.31,1.61,.48,2.41v17.03ZM11.84,123.71c0,7.96,.4,15.84,3.09,23.44,2.56,7.21,7.72,10.28,15.16,8.72,2.35-.49,4.67-1.26,6.88-2.19,10.6-4.47,19.33-11.73,28.04-19.01,4.61-3.85,8.92-8.13,13.87-11.47,12.56-8.5,26.91-11.75,41.79-12.79,9.93-.69,19.84-.15,29.6,1.99,11.78,2.58,22.67,6.95,31.94,15.07,7.77,6.81,15.75,13.41,24.01,19.6,6.2,4.64,13.05,8.37,20.94,9.58,5.91,.91,10-1.08,12.77-6.43,3.38-6.53,4.19-13.66,4.42-20.84,.68-21.1-2.76-41.67-8.27-61.95-3.84-14.14-9-27.71-17.84-39.61-9.31-12.53-21.76-17.5-37.03-14.87-8.52,1.47-16.88,3.77-25.36,5.47-8.4,1.69-16.8,3.65-25.29,4.47-8.76,.85-17.35-1.53-25.9-3.42-10.8-2.39-21.54-5.17-32.44-6.92-10.66-1.72-20.28,1.38-28.31,8.88-7.29,6.8-12.18,15.22-15.99,24.24-10.51,24.94-15.44,51.06-16.06,78.05Z"/><path class="d" d="M104.17,67.37c.04,8.9-6.28,16.64-15.08,18.27-1.42,.26-1.85,.74-2.11,2.14-1.58,8.66-9.52,15.08-18.4,15.03-8.82-.05-16.56-6.47-18.02-15.04-.23-1.33-.71-1.87-2.16-2.12-8.85-1.51-15.27-9.15-15.37-18.06-.1-9.12,6.02-16.54,15.2-18.39,1.36-.27,2.11-.77,2.38-2.33,1.46-8.44,9.41-14.94,18.16-15.01,8.56-.07,16.7,6.53,18.19,14.98,.28,1.57,.92,2.09,2.28,2.37,8.8,1.85,14.9,9.3,14.93,18.17Zm-35.52-23.83c-3.27,.04-5.77,1.98-6.38,5.22-.29,1.54-.2,3.15-.21,4.73-.04,4.79-2.39,7.13-7.21,7.24-1.82,.04-3.7,.04-5.44,.48-2.96,.76-4.49,3.09-4.46,6.13,.03,2.9,1.79,5.37,4.68,5.99,1.93,.41,3.96,.36,5.95,.42,3.92,.11,6.34,2.46,6.46,6.41,.05,1.5-.06,3.01,.06,4.5,.29,3.63,2.82,6.08,6.28,6.2,3.79,.13,6.4-1.96,6.91-5.72,.22-1.64,.12-3.33,.2-4.99,.17-3.32,2.01-5.45,5.28-5.91,1.89-.26,3.82-.19,5.72-.34,3.66-.27,6.14-2.94,6.13-6.56,0-3.7-2.64-6.45-6.39-6.62-1.41-.06-2.83,0-4.25-.03-3.8-.08-6.21-2.38-6.49-6.16-.14-1.91-.09-3.84-.39-5.72-.56-3.44-2.99-5.34-6.47-5.3Z"/><path class="d" d="M206.44,56.23c6.12,0,11.11,4.92,11.21,11.04,.1,6.05-5.2,11.37-11.27,11.33-6.1-.04-11.09-5.05-11.11-11.15-.02-6.31,4.87-11.23,11.18-11.23Z"/><path class="d" d="M172.22,67.57c-.07,6.06-5.21,11.11-11.23,11.04-6.02-.07-11.14-5.2-11.17-11.2-.04-6.25,5.17-11.27,11.58-11.17,6.08,.09,10.9,5.13,10.83,11.33Z"/><path class="d" d="M194.88,90.04c0,6.14-4.98,11.18-11.08,11.22-6.1,.04-11.14-4.94-11.22-11.09-.08-6.24,4.99-11.37,11.21-11.34,6.11,.03,11.08,5.06,11.09,11.21Z"/><path class="d" d="M194.87,44.76c-.04,6.22-4.92,11.06-11.14,11.06-6.21,0-11.11-4.88-11.15-11.07-.03-6.27,5.04-11.31,11.28-11.22,6.19,.09,11.04,5.04,11,11.23Z"/></g></g></g></svg>