<?xml version="1.0" encoding="UTF-8"?><svg xmlns="http://www.w3.org/2000/svg" viewBox="0 0 383.28 332.4"><defs><style>.d{fill:#6842ff;}</style></defs><g id="a"/><g id="b"><g id="c"><g><path class="d" d="M0,143.7c2.35-7.61,6.66-13.44,14.83-15.23,3.24-.71,6.67-.57,10.68-.87v-4.14c0-29.81,0-59.63,0-89.44,0-11.26,3.94-20.67,13.1-27.59C45.07,1.54,52.5,.02,60.41,.03c69.11,.01,138.21,0,207.32,0,18.84,0,37.67-.1,56.51,.03,13.62,.09,24.3,5.79,30.07,18.35,2.25,4.91,3.26,10.8,3.3,16.25,.26,42.16,.14,84.32,.14,126.49,0,1.49,0,2.97,0,5.01,2.12,0,4.06-.04,6,0,11.27,.29,19.43,8.2,19.45,19.46,.11,42.41,.11,84.82,0,127.24-.03,11.05-8.04,19.16-19.18,19.33-16.96,.26-33.93,.26-50.89,0-11.72-.18-19.18-8.41-19.25-20.76-.1-16.96-.03-33.93-.03-50.89,0-1.47,0-2.94,0-4.69h-76.57v38.11c4.93,0,9.75,.07,14.57-.02,7.2-.14,14.19,.54,20.52,4.44,9.98,6.16,15.32,15.06,15.75,26.8,.15,4.07-2.1,6.56-6.16,7.03-1.36,.16-2.74,.07-4.11,.07-77.84,0-155.68-.11-233.52,.12-12.04,.04-20.55-3.83-24.32-15.78V143.7Zm344.99,22.46c0-1.69,0-2.91,0-4.13,0-42.53,.01-85.07,0-127.6,0-13.75-7.85-21.62-21.58-21.62-87.81-.01-175.62-.01-263.44,0-13.79,0-21.68,7.82-21.69,21.51-.02,29.81,0,59.62,0,89.43,0,1.31,.11,2.63,.18,4.15,1.91,0,3.4,0,4.88,0,29.19,0,58.38,0,87.56,0,1.99,0,4.25-.46,5.93,.3,4.48,2.02,7.13-.08,9.71-3.26,1.17-1.45,2.62-2.67,3.94-3.99,17.99-17.99,35.98-35.99,53.99-53.96,3.37-3.37,7.18-3.74,9.91-1.15,2.9,2.75,2.57,6.56-.89,10.17-.69,.72-1.41,1.42-2.11,2.12-19.32,19.32-38.61,38.65-57.98,57.91-1.61,1.6-2.08,2.85-1.34,5.13,.87,2.67,1.23,5.6,1.26,8.42,.13,12.6,.05,25.2,.05,37.79,0,1.32,0,2.65,0,4h140.32c.06-1.24,.14-2.22,.15-3.2,.22-14.95,7.46-22.03,22.54-22.03,9.35,0,18.69,0,28.61,0Zm-204.6,127.62c.08-1.45,.18-2.54,.18-3.64,0-46.89,.01-93.78,0-140.67,0-6.76-2.14-8.81-9.05-8.81-36.42,0-72.83,0-109.25,0-7.67,0-9.52,1.84-9.52,9.44,0,46.52,0,93.03,0,139.55v4.14h127.64Zm166.26-.12h63.85c0-1.42,0-2.53,0-3.65,0-34.02,0-68.05,0-102.07,0-6.99-2.09-9.03-9.23-9.03-14.83,0-29.66,0-44.49,0-8.45,0-10.12,1.64-10.12,9.95,0,33.4,0,66.8,0,100.2,0,1.47,0,2.94,0,4.6Zm-13.05-88.97H153.65v37.87h139.94v-37.87Zm-153.02,102.35H12.75c0,1.77-.03,3.26,0,4.74,.13,5.15,2.45,7.71,7.55,7.72,37.51,.06,75.03,.05,112.54,0,5.15,0,7.49-2.47,7.71-7.58,.06-1.49,0-2.98,0-4.88Zm113.19,12.31c0-.53,.1-.92-.02-1.24-.26-.69-.57-1.38-.97-2.01-3.81-6.04-9.28-9.3-16.44-9.31-26.91-.05-53.81-.03-80.72-.02-.7,0-1.39,.24-1.98,.34-.33,4.17-.65,8.12-.97,12.24h101.1Zm-49.66-25.56v-37.91h-24.95v37.91h24.95Zm166.4,13.17h-63.85c0,1.8-.04,3.38,0,4.97,.17,5.16,2.43,7.55,7.63,7.57,16.21,.07,32.41,.08,48.62,0,5.12-.03,7.45-2.55,7.58-7.69,.04-1.48,0-2.97,0-4.85Zm-204.52-13.19v-37.95h-12.38v37.95h12.38Z"/><path class="d" d="M256.27,70.07c-1.5,2.41-2.26,4.31-3.58,5.64-20.48,20.59-41.03,41.12-61.6,61.63-3.24,3.23-6.85,3.47-9.61,.89-2.79-2.61-2.67-6.6,.62-9.9,20.5-20.57,41.07-41.08,61.6-61.63,2.22-2.22,4.94-3.52,7.72-1.96,1.91,1.07,3.13,3.37,4.85,5.33Z"/><path class="d" d="M191.43,38.32c-4.1,0-8.2,.11-12.3-.03-3.86-.14-6.27-2.42-6.51-5.82-.25-3.54,2.04-6.57,5.98-6.69,8.68-.27,17.39-.26,26.08,0,3.78,.12,6.04,2.97,5.98,6.35-.06,3.54-2.56,6.03-6.56,6.17-4.22,.15-8.45,.03-12.67,.03Z"/><path class="d" d="M84.2,243.49c-5.96,.07-9.05-4.98-6.74-9.2,.59-1.07,1.47-2.01,2.34-2.89,8.16-8.21,16.27-16.47,24.61-24.5,1.56-1.5,4.13-2.93,6.09-2.76,1.91,.16,4.72,2.14,5.17,3.83,.55,2.09-.22,5.36-1.68,7-5.03,5.67-10.6,10.86-15.96,16.24-3.25,3.26-6.43,6.61-9.81,9.73-1.39,1.28-3.23,2.06-4.02,2.55Z"/><path class="d" d="M76.16,210.04c1.04,3.09-.31,5.15-2.45,7.24-7.66,7.47-15.15,15.11-22.74,22.66-1.05,1.04-2.15,2.15-3.43,2.82-2.71,1.4-5.39,1.01-7.48-1.24-1.97-2.11-2.39-4.67-.9-7.22,.74-1.27,1.81-2.36,2.86-3.41,7.81-7.85,15.65-15.67,23.48-23.5,.26-.26,.53-.53,.79-.79,2.15-2.12,4.73-3.96,7.58-2.22,1.57,.95,2.21,3.44,3.27,5.24l-.97,.44Z"/><path class="d" d="M354.68,226.92c-1.42,2.41-2.19,4.45-3.57,5.9-5.35,5.58-10.85,11.02-16.39,16.43-3.21,3.14-6.95,3.36-9.63,.79-2.71-2.6-2.64-6.42,.47-9.6,5.66-5.8,11.27-11.68,17.32-17.07,1.6-1.43,4.91-1.97,7.06-1.42,1.8,.46,3.05,3.09,4.74,4.98Z"/><path class="d" d="M198.09,223.66c0,3.5-2.97,6.32-6.54,6.22-3.47-.09-6.06-2.76-6.05-6.25,0-3.56,2.94-6.43,6.45-6.31,3.31,.12,6.15,3.04,6.14,6.33Z"/></g></g></g></svg>