<?xml version="1.0" encoding="UTF-8"?><svg xmlns="http://www.w3.org/2000/svg" viewBox="0 0 226.59 226.59"><defs><style>.d{fill:#6842ff;}</style></defs><g id="a"/><g id="b"><g id="c"><g><path class="d" d="M226.59,9.74c-.45,3.49-.89,6.97-1.34,10.46-3.1,23.99-8.95,47.1-21.63,68.04-3.8,6.27-8.33,11.97-13.52,17.15-7.47,7.45-14.88,14.95-22.4,22.35-1.31,1.28-1.95,2.64-2.14,4.39-1.34,12.45-2.66,24.9-4.13,37.33-.17,1.42-.95,3.02-1.95,4.03-12.08,12.22-24.26,24.35-36.4,36.5-1.46,1.46-3.07,2.27-5.16,1.54-2.32-.81-2.88-2.76-3.18-4.88-1.2-8.45-2.39-16.91-3.62-25.36-.08-.55-.24-1.19-.59-1.58-2.25-2.53-4.55-5.01-7.07-7.75-.8,1.16-1.23,1.72-1.58,2.32-3.15,5.24-6.27,10.5-9.43,15.73-2.14,3.55-5.26,3.99-8.15,1.1-16.28-16.26-32.55-32.53-48.81-48.81-2.89-2.9-2.53-5.9,.94-8.01,5.79-3.52,11.6-7.01,17.4-10.51,.05-.03,.08-.11,.24-.36-2.4-2.49-4.55-5.44-7.39-7.38-1.81-1.24-4.64-1.06-7.03-1.4-6.63-.96-13.27-1.86-19.9-2.8-2.15-.3-4.01-1.01-4.72-3.36-.68-2.25,.43-3.79,1.91-5.27,11.28-11.25,22.64-22.42,33.73-33.85,2.95-3.04,6.14-4.35,10.22-4.73,11.29-1.06,22.56-2.34,33.82-3.69,1.39-.17,2.94-.97,3.95-1.95,6.6-6.43,13.25-12.84,19.57-19.55,12.69-13.47,28.17-22.35,45.47-28.35,15.43-5.35,31.28-8.79,47.56-10.24C213.12,.68,214.99,.29,216.86,0h9.74V9.74ZM57.29,113.09c18.79,18.79,37.47,37.47,55.94,55.94,1.78-1.73,3.78-3.66,6.14-5.94-.61-.44-1.35-.84-1.92-1.41-10.39-10.36-20.77-20.74-31.13-31.12-.73-.73-1.73-1.46-1.94-2.34-.33-1.39-.59-3.21,.04-4.31,.63-1.1,2.43-2.14,3.68-2.1,1.4,.04,3.03,1.05,4.1,2.11,10.6,10.46,21.11,21.02,31.64,31.55,.56,.56,1.15,1.09,1.8,1.7,.67-.64,1.27-1.19,1.83-1.75,17.83-17.83,35.5-35.83,53.56-53.43,12.17-11.86,20.4-25.96,26.04-41.78,.41-1.15,.21-1.83-.64-2.67-4.22-4.12-8.36-8.32-12.54-12.49-8.24-8.24-16.46-16.49-24.75-24.68-.55-.54-1.71-1.06-2.33-.85-14.7,5.09-28.22,12.19-39.35,23.33-22.98,23.01-45.98,45.99-68.98,68.99-.51,.51-1,1.06-1.2,1.27Zm3.23,17.12c-4.92,2.96-10,6.01-14.6,8.78,13.96,13.96,27.83,27.83,41.69,41.69,2.83-4.71,5.85-9.76,8.76-14.61-12-12-23.87-23.87-35.86-35.86Zm26.27-59.4c-9.06,1.03-17.62,1.96-26.16,3.02-1.12,.14-2.37,.77-3.18,1.56-9.03,8.91-17.98,17.89-26.94,26.86-.49,.49-.94,1.02-1.59,1.74,1.05,.2,1.76,.36,2.48,.46,5.68,.81,11.38,1.55,17.04,2.46,1.48,.24,2.44-.02,3.5-1.09,11.07-11.14,22.19-22.23,33.29-33.34,.41-.41,.79-.84,1.57-1.68Zm68.99,69.06c-.65,.56-.99,.82-1.29,1.12-11.32,11.31-22.65,22.61-33.9,33.98-.63,.64-.95,1.93-.88,2.87,.22,2.71,.71,5.4,1.1,8.09,.56,3.83,1.13,7.66,1.73,11.74,.5-.38,.75-.53,.95-.73,9.44-9.44,18.88-18.87,28.28-28.34,.51-.52,.87-1.36,.96-2.09,1.03-8.7,2-17.4,3.05-26.63ZM178.33,15.93c10.79,10.79,21.63,21.62,32.36,32.36,3.39-12.5,5.67-25.54,6.67-38.81-5.42-.57-30.92,3.74-39.03,6.45Z"/><path class="d" d="M0,220.84c1.14-1.33,2.21-2.75,3.44-3.99,14.25-14.29,28.5-28.58,42.85-42.78,1.15-1.14,2.93-2.14,4.5-2.25,3.16-.24,5.18,3.55,3.58,6.31-.47,.81-1.14,1.54-1.81,2.21-14.62,14.65-29.26,29.28-43.91,43.9-.88,.87-1.93,1.57-2.89,2.35H0v-5.75Z"/><path class="d" d="M10.84,195.59c-3.55-.4-5.61-3.9-3.99-6.81,.32-.57,.75-1.1,1.21-1.57,8.74-8.76,17.47-17.53,26.28-26.23,.83-.82,2.06-1.45,3.21-1.7,1.7-.38,3.16,.37,4.14,1.88,.97,1.5,1.03,3.04,.11,4.58-.3,.5-.67,.98-1.08,1.39-8.79,8.81-17.58,17.63-26.43,26.38-.93,.92-2.29,1.39-3.45,2.08Z"/><path class="d" d="M31.04,215.76c.63-1.11,1.05-2.43,1.91-3.3,8.8-8.9,17.66-17.75,26.54-26.58,2.21-2.2,4.79-2.28,6.67-.4,1.81,1.8,1.72,4.55-.41,6.69-8.83,8.88-17.69,17.73-26.56,26.56-1.45,1.45-3.19,2.17-5.22,1.22-1.66-.78-2.62-2.09-2.94-4.18Z"/><path class="d" d="M143.89,56.15c14.77-.03,26.54,11.72,26.55,26.49,.02,14.69-11.85,26.62-26.49,26.63-14.6,0-26.64-12.01-26.63-26.57,.01-14.69,11.86-26.53,26.57-26.55Zm17.67,26.62c.06-9.62-7.79-17.61-17.43-17.73-9.66-.12-17.72,7.79-17.86,17.53-.14,9.55,8.02,17.75,17.67,17.75,9.57,0,17.55-7.95,17.62-17.55Z"/><path class="d" d="M71.19,113.43c.02-2.34,2.01-4.37,4.31-4.41,2.3-.04,4.55,2.2,4.52,4.51-.03,2.4-2.17,4.41-4.61,4.33-2.4-.08-4.24-2.02-4.22-4.43Z"/></g></g></g></svg>