<?xml version="1.0" encoding="UTF-8"?><svg xmlns="http://www.w3.org/2000/svg" viewBox="0 0 335.27 335.94"><defs><style>.d{fill:#6842ff;}</style></defs><g id="a"/><g id="b"><g id="c"><g><path class="d" d="M107.72,36c3.25-.02,5.6,2.21,6.02,5.93,1.53,13.52,3,27.05,4.52,40.58,1.24,11.04,2.3,22.11,3.8,33.12,2.43,17.91,16.74,32.11,35.56,35.84,17.22,3.41,34.43,6.9,51.64,10.38,4.28,.87,6.29,2.92,6.25,6.18-.04,3.24-2.02,5.2-6.38,6.08-16.84,3.43-33.68,6.83-50.53,10.22-22.27,4.48-35.23,19.35-37.42,42.03-2.19,22.62-4.92,45.18-7.45,67.77-.41,3.66-2.9,5.9-6.13,5.82-3.09-.08-5.43-2.27-5.82-5.75-2.53-22.46-5.27-44.9-7.43-67.39-2.23-23.24-14.83-37.82-37.76-42.52-16.84-3.45-33.68-6.85-50.54-10.19-3.46-.69-5.81-2.29-6.03-6.01-.2-3.27,1.91-5.37,6.16-6.23,16.96-3.45,33.93-6.9,50.91-10.28,21.78-4.34,34.9-19.14,37.17-41.45,2.32-22.73,4.97-45.43,7.51-68.14,.42-3.75,2.72-5.98,5.96-6ZM39.1,167.52l.07,.98c6.7,1.34,13.4,2.73,20.11,4.02,25.8,4.95,42.94,23.04,46.38,49.03,.61,4.62,1.12,9.26,1.68,13.89,1.16-3.1,1.62-6.22,1.88-9.35,2.39-29.05,19.44-48.13,48-53.72,6.53-1.28,13.03-2.66,19.54-3.99-6.84-2.2-13.7-3.62-20.58-4.94-25.74-4.95-42.93-23.1-46.37-49.06-.61-4.62-1.12-9.25-1.68-13.88-1.16,3.11-1.62,6.23-1.88,9.36-2.39,29.03-19.45,48.13-48,53.73-6.4,1.25-12.77,2.62-19.16,3.94Z"/><path class="d" d="M335.26,89.35c.11,3.61-1.89,5.86-5.76,6.67-10.84,2.28-21.68,4.59-32.56,6.72-12.59,2.47-20.95,11.42-22.36,24.23-1.69,15.39-3.38,30.78-5.07,46.17-.48,4.38-2.56,6.75-5.99,6.8-3.44,.05-5.67-2.36-6.13-6.63-1.69-15.39-3.36-30.78-5.07-46.17-1.44-12.96-9.44-21.71-22.22-24.36-10.85-2.25-21.7-4.53-32.57-6.7-3.47-.7-5.87-2.41-5.87-6.12,0-3.72,2.41-5.4,5.89-6.1,10.62-2.13,21.21-4.43,31.83-6.59,13.61-2.77,21.42-11.13,22.97-24.87,1.71-15.14,3.34-30.28,5.01-45.42,.51-4.63,2.66-7.04,6.19-6.98,3.44,.06,5.48,2.4,5.97,6.82,1.69,15.39,3.37,30.78,5.07,46.17,1.41,12.78,9.81,21.76,22.39,24.22,10.87,2.13,21.7,4.51,32.56,6.69,3.35,.67,5.35,2.44,5.73,5.45Zm-71.84-29.31c-5.56,17.53-17.05,26.84-34.09,29.99,17.27,3,28.56,12.59,34.16,29.84,5.55-17.53,17.06-26.83,34.22-29.88-17.17-3.03-28.63-12.4-34.29-29.94Z"/><path class="d" d="M239.56,335.94c-3.35,.04-5.63-2.27-6.09-6.27-1.4-12.15-2.61-24.33-4.21-36.45-1.33-10.06-7.24-15.93-17.33-17.95-8.79-1.76-17.57-3.54-26.38-5.22-3.49-.66-5.86-2.41-5.85-6.12,.02-3.71,2.41-5.41,5.9-6.07,8.44-1.61,16.84-3.37,25.27-5.05,11.94-2.38,17.49-8.42,18.8-20.37,1.23-11.29,2.51-22.58,3.78-33.86,.48-4.3,2.71-6.66,6.17-6.59,3.34,.07,5.45,2.36,5.92,6.45,1.38,12.03,2.58,24.08,4.16,36.08,1.35,10.23,7.47,16.26,17.55,18.17,8.68,1.64,17.33,3.48,26.02,5.12,3.45,.65,5.82,2.28,6.06,5.99,.21,3.24-1.89,5.41-6.13,6.28-8.53,1.76-17.07,3.52-25.64,5.11-10.52,1.95-16.55,7.88-17.95,18.62-1.55,11.88-2.73,23.81-4.08,35.71-.46,4.06-2.63,6.37-5.97,6.41Zm-.11-91.99c-4.38,10.43-11.66,16.53-21.75,19.86,12.05,5.6,14.26,6.82,22.04,19.66,4.09-9.91,11.49-16,22.11-19.56-10.83-3.42-17.87-9.65-22.4-19.95Z"/></g></g></g></svg>