<?xml version="1.0" encoding="UTF-8"?><svg xmlns="http://www.w3.org/2000/svg" viewBox="0 0 600 600"><defs><style>.d{fill:#fff;fill-rule:evenodd;}</style></defs><g id="a"/><g id="b"><g id="c"><path class="d" d="M9.76,9.76c13.02-13.02,34.12-13.02,47.14,0l109.76,109.76v-52.86c0-18.41,14.92-33.33,33.33-33.33s33.33,14.92,33.33,33.33V200c0,18.41-14.92,33.33-33.33,33.33H66.67c-18.41,0-33.33-14.92-33.33-33.33s14.92-33.33,33.33-33.33h52.86L9.76,56.9C-3.25,43.89-3.25,22.78,9.76,9.76Zm533.33,0c13.02-13.02,34.12-13.02,47.14,0,13.02,13.02,13.02,34.12,0,47.14l-109.76,109.76h52.86c18.41,0,33.33,14.92,33.33,33.33s-14.92,33.33-33.33,33.33h-133.33c-18.41,0-33.33-14.92-33.33-33.33V66.67c0-18.41,14.92-33.33,33.33-33.33s33.33,14.92,33.33,33.33v52.86L543.1,9.76ZM33.33,400c0-18.41,14.92-33.33,33.33-33.33H200c18.41,0,33.33,14.92,33.33,33.33v133.33c0,18.41-14.92,33.33-33.33,33.33s-33.33-14.92-33.33-33.33v-52.86l-109.76,109.76c-13.02,13.02-34.12,13.02-47.14,0-13.02-13.02-13.02-34.12,0-47.14l109.76-109.76h-52.86c-18.41,0-33.33-14.92-33.33-33.33Zm333.33,0c0-18.41,14.92-33.33,33.33-33.33h133.33c18.41,0,33.33,14.92,33.33,33.33s-14.92,33.33-33.33,33.33h-52.86l109.76,109.76c13.02,13.02,13.02,34.12,0,47.14-13.02,13.02-34.12,13.02-47.14,0l-109.76-109.76v52.86c0,18.41-14.92,33.33-33.33,33.33s-33.33-14.92-33.33-33.33v-133.33Z"/></g></g></svg>